<svg xmlns="http://www.w3.org/2000/svg" width="117" height="88" viewBox="0 0 117 88" fill="none">
  <path d="M300.903 26.3571C302.928 28.3812 304 31.0602 304 33.9178V188.348C304 191.146 302.868 193.825 300.903 195.849L238.245 259.074C236.219 261.098 233.539 262.229 230.68 262.229H131.809C125.912 262.229 121.147 257.466 121.147 251.572V197.457C121.147 191.563 125.912 186.8 131.809 186.8H191.549C194.348 186.8 197.088 185.669 199.113 183.704L213.646 169.178C215.671 167.154 216.743 164.475 216.743 161.617V75.8294C216.743 69.9356 211.978 65.1729 206.081 65.1729H98.5141C92.6176 65.1729 87.8527 69.9356 87.8527 75.8294V380.344C87.8527 386.237 83.0878 391 77.1912 391H10.6614C4.76489 391 0 386.237 0 380.344V75.7699C0 69.8761 4.76489 65.1134 10.6614 65.1134H76.7147C82.6113 65.1134 87.3762 60.3507 87.3762 54.4569V-60.3435C87.3762 -66.2373 92.1411 -71 98.0376 -71L247.953 -22.1628C250.752 -22.1628 253.492 -21.0317 255.517 -19.067L300.903 26.2975V26.3571Z" fill="#4166F5"/>
</svg>