<svg width="1em" height="0.5em" viewBox="0 0 12 7" fill="none" xmlns="http://www.w3.org/2000/svg">
    <g id="haseen-logo 1" clip-path="url(#clip0_1_14)">
        <g id="Group 1">
            <path id="Vector" fill-rule="evenodd" clip-rule="evenodd"
                d="M0.39971 1.73076V1.95607H0.685976V1.73076H0.39971ZM1.34404 2.64298C1.34404 2.63985 1.34055 2.63203 1.34055 2.63203C1.33881 2.62734 1.32484 2.62577 1.32484 2.62577H1.10316V1.95452H0.823875V2.94497H0.59172C0.396222 2.94497 0.298473 2.86517 0.298473 2.704V2.39576H0.0209351V2.74312C0.0209351 2.86203 0.0593365 2.96061 0.137885 3.03885C0.216433 3.11708 0.33862 3.1562 0.507935 3.1562H1.10316V2.83857H1.32484C1.33182 2.83857 1.33706 2.837 1.34055 2.83231C1.34404 2.82918 1.34404 2.82136 1.34404 2.82136V2.64298Z"
                fill="#CFCDCD" />
            <path id="Vector_2" fill-rule="evenodd" clip-rule="evenodd"
                d="M1.96547 2.55222C1.99515 2.58039 2.02831 2.60073 2.06497 2.61011C2.10162 2.61951 2.15922 2.62576 2.23603 2.62576C2.24476 2.62576 2.25 2.62733 2.25174 2.63202C2.25221 2.63328 2.25268 2.63442 2.2531 2.63548C2.25429 2.63839 2.25523 2.64068 2.25523 2.64297V2.82135C2.25523 2.82135 2.25523 2.82917 2.25174 2.8323C2.24824 2.83699 2.24301 2.83856 2.23603 2.83856C2.15224 2.83856 2.08591 2.82761 2.03529 2.80727C1.98468 2.78693 1.93755 2.7525 1.89216 2.70243C1.85725 2.74469 1.81361 2.7791 1.76124 2.80258C1.70888 2.82604 1.65128 2.83856 1.58669 2.83856H1.32312C1.32312 2.83856 1.30916 2.83699 1.30741 2.8323C1.30392 2.82761 1.30392 2.82448 1.30392 2.82135V2.64297C1.30392 2.64297 1.30392 2.63515 1.30741 2.63202C1.3109 2.62889 1.31614 2.62576 1.32312 2.62576H1.50291C1.55528 2.62576 1.60065 2.60699 1.63905 2.56944C1.67747 2.53188 1.69667 2.48181 1.69667 2.42079V1.9373H1.97595V2.45991C1.97595 2.48964 1.97245 2.52093 1.96547 2.55222ZM1.42611 3.22191V2.9966H1.71237V3.22191H1.42611ZM1.82409 2.9966V3.22191H2.11036V2.9966H1.82409Z"
                fill="#CFCDCD" />
            <path id="Vector_3" fill-rule="evenodd" clip-rule="evenodd"
                d="M3.84713 2.15792C3.8035 2.08908 3.7424 2.03431 3.66037 1.99519H3.66211C3.58007 1.95609 3.48406 1.93574 3.3706 1.93574C3.16464 1.93574 2.9447 2.00302 2.71604 2.14072V1.95295H2.43676V2.6242H2.23777C2.23078 2.6242 2.22554 2.62734 2.22205 2.63046C2.21857 2.6336 2.21857 2.64142 2.21857 2.64142V2.81979C2.21857 2.82293 2.21857 2.82605 2.22205 2.83074C2.2238 2.83544 2.23777 2.837 2.23777 2.837H3.42821C3.56261 2.837 3.67781 2.79788 3.76859 2.71966C3.80873 2.75876 3.85586 2.78693 3.90823 2.80727C3.96059 2.82762 4.00947 2.837 4.05485 2.837C4.06358 2.837 4.06707 2.83544 4.07057 2.83074C4.07405 2.82762 4.07405 2.81979 4.07405 2.81979V2.64142C4.07405 2.63912 4.07312 2.63683 4.07193 2.63393C4.0715 2.63286 4.07103 2.63172 4.07057 2.63046C4.06881 2.62577 4.06358 2.6242 4.05485 2.6242C3.97631 2.6242 3.91696 2.60699 3.87506 2.57257C3.8995 2.51937 3.91172 2.45835 3.91172 2.39106C3.91172 2.30501 3.88903 2.22678 3.84713 2.15792ZM2.71428 2.35508C2.81552 2.29092 2.91153 2.24085 3.00579 2.20643C3.10005 2.172 3.20478 2.1548 3.31998 2.1548C3.41074 2.1548 3.48406 2.1767 3.53817 2.22051C3.59228 2.26432 3.62196 2.32378 3.62196 2.39575C3.62196 2.46773 3.60101 2.52406 3.55912 2.56474C3.51723 2.60542 3.45787 2.62577 3.37933 2.62577H2.71428V2.35508Z"
                fill="#CFCDCD" />
            <path id="Vector_4"
                d="M4.86128 2.01867C4.95554 2.07343 5.02187 2.14854 5.06376 2.24399L5.17199 2.48964C5.20515 2.56788 5.28021 2.61325 5.3989 2.6242L5.29068 2.83857H4.05311C4.05311 2.83857 4.03914 2.837 4.0374 2.83231C4.0339 2.82762 4.03391 2.82448 4.03391 2.82136V2.64298C4.03391 2.64298 4.0339 2.63516 4.0374 2.63203C4.03914 2.62734 4.04612 2.62577 4.05311 2.62577H4.38649C4.48774 2.62577 4.85255 2.62577 4.93983 2.62577L4.80716 2.35977C4.78099 2.30188 4.74083 2.2565 4.68499 2.22521C4.63087 2.19392 4.56629 2.17827 4.48948 2.17827C4.4057 2.17827 4.32889 2.19392 4.26082 2.22364L4.15958 2.02024C4.27479 1.96547 4.39872 1.93887 4.53138 1.93887C4.66403 1.93887 4.76702 1.96704 4.86128 2.0218V2.01867Z"
                fill="#CFCDCD" />
        </g>
        <g id="Group 2">
            <path id="Vector_5" fill-rule="evenodd" clip-rule="evenodd"
                d="M3.47882 4.63014C3.43517 4.63796 3.39153 4.64108 3.35139 4.64108L3.3479 4.64265C3.31124 4.64265 3.27633 4.63953 3.24491 4.6317C3.21349 4.62388 3.18557 4.61293 3.16112 4.59728C3.13844 4.58163 3.11749 4.56129 3.10352 4.53626C3.08956 4.51121 3.08083 4.48149 3.07735 4.44551H3.64115C3.64289 4.42673 3.64289 4.40482 3.64289 4.37822C3.64289 4.30938 3.63416 4.24992 3.61496 4.19985C3.59576 4.14977 3.56958 4.10753 3.53642 4.07624C3.50325 4.04338 3.4631 4.0199 3.41772 4.00583C3.37233 3.99174 3.31997 3.98392 3.26761 3.98392C3.21524 3.98392 3.16462 3.99331 3.11575 4.01052C3.06862 4.02773 3.02498 4.05433 2.98657 4.08875C2.94817 4.12317 2.9185 4.16542 2.89581 4.21862C2.87311 4.27026 2.86264 4.32972 2.86264 4.40169C2.86264 4.47366 2.87486 4.53312 2.8993 4.58319C2.92373 4.63327 2.9569 4.67394 2.99705 4.70524C3.03719 4.73654 3.08606 4.75844 3.14018 4.77252C3.19429 4.78661 3.25364 4.79286 3.31298 4.79286C3.37233 4.79286 3.43169 4.78817 3.48753 4.77878C3.54339 4.7694 3.58529 4.76001 3.61322 4.74906V4.59884C3.56783 4.61293 3.52245 4.62231 3.47882 4.63014ZM3.19255 4.14508C3.2135 4.13725 3.23793 4.13256 3.26411 4.13256C3.2903 4.13256 3.31473 4.13568 3.33393 4.14508C3.35313 4.15447 3.36885 4.16542 3.38281 4.18106C3.39503 4.19671 3.4055 4.21392 3.41249 4.23426C3.41946 4.25461 3.42296 4.27495 3.42296 4.29841H3.08432C3.08782 4.27651 3.09305 4.25461 3.10178 4.23426C3.11225 4.21392 3.12272 4.19671 3.13844 4.18106C3.15415 4.16542 3.1716 4.15447 3.19255 4.14508Z"
                fill="#CFCDCD" />
            <path id="Vector_6"
                d="M0.218191 4.14821H0.768029V3.70854H0.984474V4.77409H0.768029V4.31093H0.218191V4.77409H0V3.70854H0.218191V4.14821Z"
                fill="#CFCDCD" />
            <path id="Vector_7" fill-rule="evenodd" clip-rule="evenodd"
                d="M1.74552 4.69116H1.74902L1.75076 4.69742L1.75949 4.77878H1.94975C1.94801 4.74906 1.94625 4.7162 1.94625 4.68021C1.94451 4.64422 1.94451 4.60041 1.94451 4.54878V4.25774C1.94451 4.21863 1.93754 4.18263 1.92182 4.14977C1.90611 4.11691 1.88168 4.08719 1.85025 4.06372C1.81709 4.04025 1.77869 4.02147 1.73156 4.00739C1.68443 3.99331 1.63032 3.98705 1.56748 3.98705C1.51337 3.98705 1.46275 3.99175 1.41388 4.00113C1.36499 4.01052 1.31962 4.02304 1.27598 4.04025V4.18733C1.32485 4.17168 1.37198 4.1576 1.41388 4.14977C1.45577 4.14196 1.49941 4.13726 1.5413 4.13726C1.57621 4.13726 1.60588 4.14039 1.63032 4.14822C1.65476 4.15603 1.67396 4.16699 1.68967 4.17951C1.70537 4.19203 1.71585 4.20611 1.72283 4.22332C1.72982 4.23897 1.7333 4.25618 1.7333 4.27495V4.30625C1.71062 4.29999 1.68269 4.2953 1.65127 4.2906C1.61984 4.2859 1.58494 4.28435 1.54828 4.28435C1.49767 4.28435 1.45054 4.28904 1.40864 4.30155C1.36675 4.3125 1.33009 4.32972 1.30042 4.35319C1.27075 4.3751 1.24805 4.40326 1.23059 4.43612C1.21314 4.46897 1.20441 4.50496 1.20441 4.54721C1.20441 4.58476 1.21139 4.61919 1.22536 4.64891C1.23932 4.68021 1.25852 4.70525 1.2847 4.72715C1.30915 4.74749 1.34056 4.7647 1.37548 4.77566C1.41212 4.78661 1.45054 4.79287 1.49068 4.79287C1.52035 4.79287 1.54828 4.78973 1.57447 4.78347C1.60064 4.77722 1.62508 4.7694 1.64603 4.75844C1.66872 4.74906 1.68792 4.7381 1.70363 4.72558C1.70539 4.72418 1.70715 4.72279 1.70887 4.72142C1.72247 4.71061 1.73468 4.70088 1.74552 4.69116ZM1.66175 4.433C1.68792 4.43612 1.71236 4.43926 1.73156 4.44395L1.73331 4.44551V4.56287C1.72283 4.57225 1.71236 4.58164 1.70015 4.59103C1.68618 4.60042 1.67222 4.60824 1.6565 4.61606C1.64079 4.62388 1.62334 4.63014 1.60414 4.63483C1.58494 4.63954 1.56399 4.64266 1.54304 4.64266C1.52559 4.64266 1.50988 4.64109 1.49417 4.6364C1.47847 4.63328 1.46624 4.62545 1.45403 4.61763C1.44181 4.60824 1.43308 4.59728 1.4261 4.58477C1.41911 4.57225 1.41562 4.55661 1.41562 4.53939C1.41562 4.50184 1.43134 4.47367 1.46101 4.4549C1.49068 4.43769 1.53257 4.4283 1.58319 4.4283C1.60937 4.4283 1.63556 4.42986 1.66175 4.433Z"
                fill="#CFCDCD" />
            <path id="Vector_8"
                d="M2.55892 4.55033C2.55892 4.53312 2.55368 4.52061 2.54321 4.50966C2.53274 4.4987 2.51878 4.48931 2.50132 4.48306C2.48386 4.47523 2.46466 4.46897 2.44198 4.46428C2.41928 4.45958 2.39659 4.45332 2.37215 4.44863C2.34073 4.4408 2.31106 4.43299 2.28313 4.42203C2.2552 4.41265 2.22902 4.40013 2.20807 4.38291C2.18713 4.36727 2.16967 4.34693 2.15571 4.32345C2.14348 4.29998 2.13651 4.27026 2.13651 4.23426C2.13651 4.19202 2.14523 4.15447 2.16269 4.12317C2.18014 4.09188 2.20283 4.06528 2.23251 4.04494C2.26219 4.0246 2.29535 4.00895 2.33549 3.998C2.37389 3.98861 2.41579 3.98235 2.45768 3.98235C2.51005 3.98235 2.55892 3.98548 2.60605 3.99331C2.65143 4.00113 2.69333 4.01052 2.73173 4.02303V4.17637C2.71253 4.17011 2.69158 4.16542 2.67063 4.16073C2.64969 4.15603 2.627 4.15134 2.60431 4.14821C2.58161 4.14508 2.56067 4.14196 2.53798 4.13882C2.51703 4.1357 2.49608 4.1357 2.47514 4.1357C2.45069 4.1357 2.42975 4.13725 2.41229 4.14196C2.39485 4.14665 2.38088 4.15134 2.3704 4.15916C2.35993 4.16699 2.3512 4.1748 2.34772 4.1842C2.34248 4.19359 2.34073 4.20297 2.34073 4.21392C2.34073 4.23114 2.34596 4.24522 2.35645 4.25617C2.36692 4.26712 2.38088 4.27652 2.40008 4.28278C2.41928 4.28903 2.43674 4.29529 2.45768 4.29998C2.47688 4.30467 2.49782 4.30938 2.51703 4.3125C2.5467 4.31876 2.57638 4.32658 2.60605 4.33598C2.63573 4.34536 2.66191 4.35788 2.68634 4.37353C2.71079 4.38917 2.72999 4.41108 2.74395 4.43611C2.75966 4.46271 2.76663 4.49401 2.76663 4.53469C2.76663 4.5785 2.75791 4.61605 2.73871 4.64891C2.71951 4.68177 2.69507 4.70837 2.66191 4.73028C2.62874 4.75218 2.59034 4.76783 2.54321 4.77721C2.49782 4.78817 2.44721 4.79286 2.39135 4.79286C2.33549 4.79286 2.28836 4.78973 2.24473 4.78191C2.20109 4.77409 2.16443 4.7647 2.13651 4.75218V4.60041C2.18189 4.61605 2.22553 4.62701 2.26393 4.6317C2.30233 4.63639 2.33899 4.63953 2.37389 4.63953C2.40008 4.63953 2.42452 4.63796 2.44721 4.63483C2.4699 4.6317 2.48911 4.62544 2.50481 4.61918C2.52052 4.61136 2.53448 4.60197 2.54321 4.59102C2.55194 4.58007 2.55718 4.56598 2.55718 4.55033"
                fill="#CFCDCD" />
            <path id="Vector_9" fill-rule="evenodd" clip-rule="evenodd"
                d="M4.34459 4.63014C4.30095 4.63796 4.25731 4.64108 4.21717 4.64108L4.21367 4.64265C4.17701 4.64265 4.14211 4.63953 4.11068 4.6317C4.07927 4.62388 4.05134 4.61293 4.02691 4.59728C4.00421 4.58163 3.98326 4.56129 3.96929 4.53626C3.95534 4.51121 3.94661 4.48149 3.94312 4.44551H4.50692C4.50867 4.42673 4.50867 4.40482 4.50867 4.37822C4.50867 4.30938 4.49994 4.24992 4.48074 4.19985C4.46154 4.14977 4.43535 4.10753 4.40219 4.07624C4.36902 4.04338 4.32888 4.0199 4.28349 4.00583C4.23811 3.99174 4.18574 3.98392 4.13338 3.98392C4.08101 3.98392 4.03039 3.99331 3.98152 4.01052C3.93439 4.02773 3.89075 4.05433 3.85235 4.08875C3.81395 4.12317 3.78427 4.16542 3.76159 4.21862C3.73889 4.27026 3.72842 4.32972 3.72842 4.40169C3.72842 4.47366 3.74064 4.53312 3.76507 4.58319C3.78951 4.63327 3.82267 4.67394 3.86282 4.70524C3.90297 4.73654 3.95185 4.75844 4.00595 4.77252C4.06007 4.78661 4.11941 4.79286 4.17877 4.79286C4.23811 4.79286 4.29746 4.78817 4.35332 4.77878C4.40918 4.7694 4.45106 4.76001 4.47899 4.74906V4.59884C4.43361 4.61293 4.38822 4.62231 4.34459 4.63014ZM4.05832 4.14508C4.07926 4.13725 4.10369 4.13256 4.12988 4.13256C4.15606 4.13256 4.18049 4.13568 4.19971 4.14508C4.21891 4.15447 4.23461 4.16542 4.24858 4.18106C4.26079 4.19671 4.27127 4.21392 4.27825 4.23426C4.28524 4.25461 4.28872 4.27495 4.28872 4.29841H3.95009C3.95358 4.27651 3.95882 4.25461 3.96754 4.23426C3.97802 4.21392 3.98849 4.19671 4.0042 4.18106C4.01991 4.16542 4.03737 4.15447 4.05832 4.14508Z"
                fill="#CFCDCD" />
            <path id="Vector_10"
                d="M4.84379 4.11065H4.84729C4.85951 4.09501 4.87522 4.07936 4.89442 4.06372C4.91362 4.04807 4.93457 4.03555 4.95901 4.02304C4.98344 4.01052 5.00963 4.00269 5.0393 3.99487C5.06897 3.98704 5.10039 3.98392 5.13356 3.98392C5.16497 3.98392 5.19465 3.98704 5.22432 3.99331C5.25399 3.99957 5.28018 4.00895 5.30462 4.02304C5.32905 4.03712 5.35001 4.05433 5.36921 4.07624C5.38841 4.09814 5.40237 4.12317 5.41284 4.15291C5.41808 4.17011 5.42331 4.18733 5.42505 4.20611C5.42681 4.22488 5.42855 4.24835 5.42855 4.27338V4.77409H5.21909V4.30312C5.21909 4.28278 5.21909 4.264 5.21559 4.24992C5.21385 4.23427 5.21036 4.22175 5.20512 4.2108C5.19465 4.18577 5.17894 4.16855 5.15625 4.1576C5.1353 4.14665 5.10912 4.14196 5.0777 4.14196C5.03755 4.14196 4.99741 4.14977 4.96075 4.16699C4.92409 4.1842 4.88918 4.20923 4.86125 4.24209V4.77252H4.65179V4.00113H4.82635L4.84555 4.1091L4.84379 4.11065Z"
                fill="#CFCDCD" />
        </g>
        <path id="Vector_11" fill-rule="evenodd" clip-rule="evenodd"
            d="M9.09983 1.80725L8.43165 1.43154C8.38618 1.40564 8.35819 1.36029 8.35819 1.31171V0.119835C8.35819 0.0793504 8.39316 0.0485818 8.43515 0.0485818H8.58383C8.62581 0.0485818 8.65905 0.0809698 8.65905 0.119835V1.23236L9.02638 1.43965V0.069634C9.02638 0.0307685 9.06135 0 9.10334 0H9.25202C9.29575 0 9.32898 0.0307685 9.32898 0.069634V1.68255C9.32898 1.73437 9.301 1.78295 9.25727 1.80725C9.21003 1.83316 9.14707 1.83316 9.09983 1.80725ZM9.77153 1.85583H9.9202C9.96219 1.85583 9.99716 1.82344 9.99716 1.78458V0.119838C9.99716 0.0809727 9.96393 0.0485848 9.9202 0.0485848H9.77153C9.72954 0.0485848 9.69456 0.0793533 9.69456 0.119838V1.78458C9.69456 1.82344 9.72954 1.85583 9.77153 1.85583ZM7.76871 0.147363H7.91739L7.91914 0.148983C7.96112 0.148983 7.99435 0.179751 7.99435 0.218617V1.37648C7.99435 1.42831 7.95938 1.4785 7.90865 1.50118L7.24046 1.80077C7.22122 1.80886 7.19848 1.81372 7.17574 1.81372C7.13376 1.81372 7.09528 1.79752 7.06554 1.76838C7.03931 1.74408 7.0253 1.70846 7.0253 1.66959V0.414564C7.0253 0.375699 7.05854 0.34331 7.10053 0.34331H7.2492C7.29119 0.34331 7.32442 0.375699 7.32442 0.414564V1.45097L7.69175 1.28742V0.216997C7.69175 0.178132 7.72673 0.147363 7.76871 0.147363ZM7.9926 3.39586C7.9926 3.36348 7.97861 3.33109 7.95587 3.30518L7.95412 3.30356L7.32267 2.62504V2.17809C7.32267 2.13922 7.28943 2.10683 7.24745 2.10683H7.09878C7.05679 2.10683 7.02355 2.13922 7.02355 2.17809V2.67685C7.02355 2.71086 7.03755 2.74325 7.06029 2.76755L7.69174 3.44769V5.58691C7.69174 5.62578 7.72673 5.65816 7.76871 5.65816H7.91739C7.95936 5.65816 7.9926 5.62578 7.9926 5.58691V3.39586ZM7.33316 4.06145C7.46085 4.00476 7.54132 3.88655 7.54132 3.75537H7.54306C7.54306 3.56753 7.37863 3.4153 7.17574 3.4153C6.97283 3.4153 6.80841 3.56753 6.80841 3.75537C6.80841 3.88655 6.88712 4.00476 7.01656 4.06145L7.0253 4.06468V5.08329C7.0253 5.12214 7.05854 5.15292 7.10052 5.15292H7.2492C7.29118 5.15292 7.32441 5.12214 7.32441 5.08329V4.06468L7.33316 4.06145ZM7.32093 3.75537C7.32093 3.68088 7.25446 3.61934 7.17399 3.61934C7.09353 3.61934 7.02706 3.68088 7.02706 3.75537C7.02706 3.82986 7.09353 3.89141 7.17399 3.89141C7.25446 3.89141 7.32093 3.82986 7.32093 3.75537ZM6.58102 0.676907H6.43234C6.39035 0.676907 6.35712 0.709295 6.35712 0.748161V3.95456C6.35712 3.99343 6.39035 4.02581 6.43234 4.02581H6.58102C6.623 4.02581 6.65623 3.99343 6.65623 3.95456V0.746541C6.65623 0.707676 6.623 0.675288 6.58102 0.675288V0.676907ZM11.7743 0.676907H11.923V0.675288C11.965 0.675288 12 0.707676 12 0.746541V3.95456C12 3.99343 11.965 4.02581 11.923 4.02581H11.7743C11.7306 4.02581 11.6974 3.99343 11.6974 3.95456V0.748161C11.6974 0.709295 11.7324 0.676907 11.7743 0.676907ZM11.2548 0.344931H11.1061C11.0642 0.344931 11.0292 0.377319 11.0292 0.416185V2.27848C11.0292 2.31735 11.0624 2.34974 11.1061 2.34974H11.2548C11.2968 2.34974 11.3318 2.31735 11.3318 2.27848V0.414565C11.3318 0.3757 11.2968 0.343312 11.2548 0.343312V0.344931ZM11.1026 3.98533C11.1271 3.97237 11.1534 3.9659 11.1796 3.9659L11.1814 3.96752C11.2181 3.96752 11.2548 3.98048 11.2846 4.00476C11.3143 4.03067 11.3318 4.06954 11.3318 4.11164V5.08652C11.3318 5.12539 11.2968 5.15615 11.2548 5.15615H11.1062C11.0624 5.15615 11.0292 5.12539 11.0292 5.08652V4.34969L10.6619 4.54889V5.59015C10.6619 5.62902 10.6269 5.66141 10.5849 5.66141H10.4362C10.3942 5.66141 10.3592 5.62902 10.3592 5.59015V4.46792C10.3592 4.41934 10.389 4.37237 10.4345 4.34808L11.1026 3.98533ZM9.84499 4.63956H9.83799L9.16981 4.67034C9.08934 4.67357 9.02638 4.73511 9.02638 4.8096V6.18771C9.02638 6.22657 9.06135 6.25734 9.10334 6.25734H9.25202C9.294 6.25734 9.32898 6.22657 9.32898 6.18771V4.94239L9.69631 4.92619V5.9448C9.69631 5.98366 9.73129 6.01605 9.77327 6.01605H9.92195C9.96393 6.01605 9.99892 5.98366 9.99892 5.9448V4.77884C9.99892 4.76588 9.99892 4.75454 9.99367 4.7432C9.97618 4.68167 9.91671 4.63795 9.84849 4.63795L9.84499 4.63956ZM8.50861 6.01443C8.71152 6.01443 8.87594 5.86221 8.87594 5.67436C8.87594 5.54318 8.79722 5.42497 8.66779 5.3683L8.65905 5.36343V4.51163C8.65905 4.47276 8.62581 4.442 8.58382 4.442H8.43515C8.39316 4.442 8.35819 4.47276 8.35819 4.51163V5.36343L8.34943 5.3683C8.22175 5.42497 8.14128 5.54318 8.14128 5.67436C8.14128 5.86221 8.30571 6.01443 8.50861 6.01443ZM8.65554 5.67436C8.65554 5.59987 8.58907 5.53833 8.50861 5.53833C8.42815 5.53833 8.36168 5.59987 8.36168 5.67436C8.36168 5.74885 8.42815 5.81039 8.50861 5.81039C8.58907 5.81039 8.65554 5.74885 8.65554 5.67436ZM11.3318 2.99912C11.3318 2.95702 11.3126 2.91977 11.2776 2.89224L11.2758 2.89062L10.6619 2.41614V0.798361L10.6706 0.793503C10.7965 0.736823 10.8788 0.616988 10.8788 0.487437C10.8788 0.299586 10.7143 0.147363 10.5114 0.147363C10.3085 0.147363 10.1441 0.299586 10.1441 0.487437C10.1441 0.616988 10.2263 0.736823 10.3523 0.793503L10.361 0.798361V2.48415C10.361 2.52625 10.3802 2.56512 10.4152 2.59103L11.0292 3.06552V3.34729C11.0292 3.38615 11.0642 3.41693 11.1062 3.41693H11.2548C11.2968 3.41693 11.3318 3.38615 11.3318 3.34729V2.99912ZM10.6601 0.490676C10.6601 0.416184 10.5954 0.354648 10.5149 0.354648C10.4345 0.354648 10.368 0.416184 10.368 0.490676C10.368 0.565168 10.4327 0.626705 10.5149 0.626705C10.5971 0.626705 10.6601 0.566788 10.6601 0.490676ZM9.3727 3.70032C9.60186 3.54972 9.78376 3.4315 10.1406 3.52543L10.1458 3.52057C10.1528 3.52219 10.1563 3.52705 10.1563 3.53353C10.1546 3.54 10.1511 3.54485 10.1441 3.54485C9.79076 3.57238 9.62459 3.69384 9.44793 3.8234C9.40945 3.85255 9.36921 3.88169 9.32723 3.90922C9.44793 3.9821 9.57736 4.05173 9.7103 4.07441C9.71729 4.07602 9.72429 4.08088 9.72429 4.08735C9.72429 4.09221 9.7208 4.10031 9.71555 4.10193C9.65782 4.12946 9.6036 4.14242 9.54938 4.14242C9.42694 4.14242 9.30974 4.07764 9.18555 3.99991C9.00713 4.11165 8.84446 4.19586 8.65555 4.10193C8.65029 4.10031 8.6468 4.09221 8.6468 4.08735C8.6468 4.08088 8.65205 4.07441 8.65905 4.07441C8.79199 4.05334 8.92318 3.98371 9.04387 3.90922C9.00014 3.88169 8.9599 3.85255 8.92142 3.8234L8.91885 3.82153C8.74313 3.69428 8.57686 3.57388 8.22525 3.54648C8.21825 3.54485 8.213 3.54162 8.213 3.53514C8.21126 3.52866 8.21651 3.52219 8.22175 3.52219C8.57859 3.42826 8.76049 3.54648 8.98963 3.69708C9.01762 3.7149 9.04561 3.73271 9.07535 3.75214C9.12433 3.40073 9.11558 2.98131 9.10683 2.84205C9.01413 2.89386 8.90218 2.99265 8.82696 3.25175L8.81647 3.28737C8.81298 3.29385 8.80947 3.29709 8.80248 3.29709C8.79723 3.29709 8.79023 3.28737 8.79023 3.28737L8.78323 3.25175C8.73426 2.99751 8.87769 2.81613 8.93716 2.75298C8.91093 2.75783 8.87069 2.76593 8.82172 2.78699C8.74301 2.82099 8.62756 2.89224 8.51212 3.0477L8.48762 3.08171C8.48413 3.08657 8.47713 3.08819 8.47188 3.08657C8.46663 3.08496 8.46488 3.07362 8.46488 3.07362L8.47363 3.03313C8.54885 2.69954 8.80947 2.5878 8.90393 2.55703C8.8532 2.54083 8.73076 2.52303 8.49812 2.59427L8.46839 2.604C8.46139 2.60561 8.45614 2.604 8.45265 2.59913C8.4474 2.59427 8.45265 2.58456 8.45265 2.58456L8.47363 2.56188C8.65029 2.36918 8.90742 2.38699 8.99839 2.39994C8.97565 2.3708 8.93016 2.32383 8.8532 2.27525L8.82172 2.25582C8.81647 2.25259 8.81472 2.24611 8.81647 2.24125C8.81822 2.23477 8.83047 2.23315 8.83047 2.23315L8.8672 2.238C9.00363 2.25582 9.09285 2.30764 9.13307 2.34165C9.13658 2.30603 9.14532 2.25906 9.16281 2.22181L9.16981 2.204C9.17155 2.20076 9.1768 2.19753 9.18205 2.19753C9.18729 2.19753 9.19429 2.20562 9.19429 2.20562L9.20129 2.22181C9.21879 2.25906 9.22753 2.30603 9.23102 2.34165C9.25027 2.32383 9.28351 2.30278 9.32723 2.28335C9.37096 2.26391 9.42694 2.24772 9.49515 2.238L9.53188 2.23315C9.53713 2.23315 9.54413 2.23639 9.54588 2.24125C9.54762 2.24611 9.54063 2.25582 9.54063 2.25582L9.50915 2.27525C9.43219 2.32383 9.38671 2.3708 9.36396 2.39994C9.45318 2.38699 9.71031 2.36918 9.88872 2.56188L9.9097 2.58456C9.91321 2.58941 9.91321 2.59427 9.9097 2.59913C9.90621 2.604 9.89396 2.604 9.89396 2.604L9.86423 2.59427C9.62809 2.52303 9.5074 2.54083 9.45842 2.55703C9.55288 2.5878 9.81526 2.70116 9.88872 3.03475L9.89747 3.07362C9.89921 3.08009 9.89572 3.08657 9.89047 3.08819C9.88522 3.08981 9.87473 3.08333 9.87473 3.08333L9.85023 3.04932C9.73479 2.89386 9.6176 2.82261 9.54063 2.7886C9.49166 2.76755 9.45142 2.75783 9.42519 2.7546C9.48466 2.81775 9.62809 2.99912 9.57912 3.25499L9.57212 3.29062C9.57036 3.29548 9.56687 3.30033 9.55987 3.30033C9.55288 3.30033 9.54588 3.29062 9.54588 3.29062L9.53539 3.25499C9.46016 2.99751 9.34998 2.89872 9.25552 2.84528C9.24676 2.98455 9.23802 3.40559 9.287 3.75539C9.31673 3.73596 9.34473 3.71813 9.3727 3.70032Z"
            fill="#CFCDCD" />
    </g>
    <defs>
        <clipPath id="clip0_1_14">
            <rect width="12" height="6.26" fill="white" />
        </clipPath>
    </defs>
</svg>