<svg xmlns="http://www.w3.org/2000/svg" width="245" height="317" viewBox="0 0 245 317" fill="none">
  <path d="M640.408 82.1472C644.718 86.4539 647 92.1541 647 98.2342V426.816C647 432.769 644.591 438.47 640.408 442.776L507.053 577.3C502.743 581.607 497.039 584.013 490.954 584.013H280.527C267.978 584.013 257.837 573.88 257.837 561.339V446.196C257.837 433.656 267.978 423.522 280.527 423.522H407.671C413.629 423.522 419.46 421.116 423.77 416.936L454.7 386.028C459.01 381.721 461.292 376.021 461.292 369.941V187.41C461.292 174.869 451.151 164.736 438.601 164.736H209.667C197.117 164.736 186.976 174.869 186.976 187.41V835.326C186.976 847.867 176.835 858 164.285 858H22.6906C10.1411 858 0 847.867 0 835.326V187.283C0 174.743 10.1411 164.609 22.6906 164.609H163.271C175.821 164.609 185.962 154.476 185.962 141.935V-102.326C185.962 -114.866 196.103 -125 208.652 -125L527.716 -21.0888C533.674 -21.0888 539.505 -18.6821 543.815 -14.502L640.408 82.0205V82.1472Z" fill="#4166F5"/>
</svg>