<svg width="1em" height="0.25em" viewBox="0 0 85 33" fill="none" xmlns="http://www.w3.org/2000/svg">
    <rect x="1.77124" y="9.52539" width="0.842229" height="0.736271" fill="#373D48" />
    <rect x="0.600342" y="9.52539" width="0.842229" height="0.736271" fill="#373D48" />
    <path fill-rule="evenodd" clip-rule="evenodd"
        d="M11.6961 13.6604C11.8836 13.6604 12.0547 13.6224 12.2069 13.5436C12.3617 13.4648 12.4894 13.3562 12.59 13.2149C12.7231 13.3779 12.8616 13.492 13.0111 13.5572C13.1605 13.6224 13.3561 13.655 13.6006 13.6604H13.962C14.3125 13.6604 14.5923 13.5355 14.8042 13.2855C14.9237 13.4105 15.0623 13.5029 15.2117 13.5654C15.3639 13.6278 15.5052 13.6577 15.6328 13.6577H20.9606C21.1943 13.0464 21.3111 12.5574 21.3111 12.1906C21.3111 11.9053 21.2486 11.65 21.1236 11.4245C20.9987 11.199 20.8166 11.0224 20.5775 10.892C20.3385 10.7643 20.0532 10.6991 19.7217 10.6991C19.105 10.6991 18.4638 10.9218 17.7982 11.3647V9.17761H16.9804V12.9541H15.6356C15.3747 12.9541 15.1846 12.8807 15.0677 12.7367C15.0922 12.6307 15.1031 12.5221 15.1031 12.408V10.7534H14.2826V12.2803C14.2826 12.484 14.2282 12.6471 14.1168 12.7693C14.0054 12.8916 13.8723 12.9541 13.7175 12.9541H13.6006C13.3751 12.9541 13.2067 12.9378 13.098 12.9052C12.9893 12.8726 12.8915 12.8101 12.8046 12.715C12.8236 12.609 12.8345 12.5085 12.8345 12.4107V10.6963H12.014V12.2803C12.014 12.484 11.9596 12.6471 11.8483 12.7693C11.7369 12.8916 11.6037 12.9541 11.4462 12.9541H3.20047C3.05376 12.9541 2.93965 12.9133 2.86358 12.8291C2.7875 12.7449 2.74947 12.6009 2.74947 12.3998L2.7549 10.8159C2.24685 10.7371 1.86105 10.6991 1.58937 10.6991C1.27421 10.6991 0.99709 10.7643 0.755289 10.892C0.516205 11.0196 0.328741 11.199 0.198331 11.4272C0.0652048 11.6554 0 11.9108 0 12.1906C0 12.4705 0.0624879 12.7394 0.187464 12.9622C0.31244 13.185 0.483602 13.3562 0.700951 13.4757C0.918301 13.5952 1.17097 13.6577 1.43179 13.6577C1.81758 13.6577 2.3039 13.5708 2.44246 13.5436C2.58646 13.617 2.75219 13.6577 2.95052 13.6577H11.6961V13.6604ZM17.801 12.071C18.0944 11.8673 18.3824 11.7097 18.6731 11.5928C18.9611 11.476 19.2626 11.4163 19.5805 11.4163C19.8495 11.4163 20.0641 11.4869 20.2244 11.6336C20.3847 11.7776 20.4662 11.9678 20.4716 12.2069C20.4716 12.4405 20.4336 12.6932 20.3548 12.9621H17.8064V12.0737L17.801 12.071ZM0.853135 12.2068C0.853135 12.4405 0.915622 12.6252 1.03788 12.7584H1.0406C1.16286 12.8915 1.34489 12.9594 1.57039 12.9594C1.70623 12.9594 1.87738 12.9512 1.99149 12.9458L1.9915 12.9458C1.95618 12.8208 1.93716 12.685 1.93716 12.5329V11.4461C1.7986 11.4189 1.67635 11.4054 1.56767 11.4054C1.0895 11.4054 0.853135 11.6743 0.853135 12.2068Z"
        fill="#373D48" />
    <rect x="11.2207" y="14.1738" width="0.842229" height="0.736271" fill="#373D48" />
    <rect x="12.3916" y="14.1738" width="0.842229" height="0.736271" fill="#373D48" />
    <rect x="14.2744" y="9.52539" width="0.842229" height="0.736271" fill="#373D48" />
    <path fill-rule="evenodd" clip-rule="evenodd"
        d="M23.2916 13.6605C23.0226 13.6605 22.7808 13.598 22.5635 13.4784L22.5662 13.4757C22.3516 13.3562 22.1804 13.185 22.0582 12.9622C21.9359 12.7395 21.8734 12.4705 21.8734 12.1906C21.8734 11.9108 21.9386 11.6554 22.0717 11.4272C22.2049 11.199 22.3923 11.0197 22.6314 10.892C22.8705 10.7643 23.1503 10.6991 23.4655 10.6991C23.7345 10.6991 24.123 10.7371 24.6283 10.8159V12.9568H25.5711V9.18036H26.3834V13.6605H24.6174C24.5821 14.1006 24.4409 14.4212 24.1882 14.6195C23.9355 14.8206 23.5823 14.9564 23.1259 15.0298L22.7971 15.0705V14.2989C23.0389 14.269 23.2318 14.2256 23.3731 14.1685C23.5144 14.1115 23.6231 14.0272 23.6964 13.9159C23.7426 13.8452 23.7725 13.761 23.7888 13.6605H23.2916ZM23.8079 11.4434C23.6693 11.4163 23.5443 11.4027 23.4329 11.4027C22.9548 11.4027 22.7184 11.6717 22.7184 12.2042C22.7184 12.4378 22.7809 12.6226 22.9032 12.7557C23.0254 12.8888 23.202 12.9567 23.4329 12.9567H23.8079V11.4434Z"
        fill="#373D48" />
    <rect x="27.3724" y="9.18036" width="0.817777" height="4.48011" fill="#373D48" />
    <rect x="31.9152" y="9.52539" width="0.842229" height="0.736271" fill="#373D48" />
    <rect x="30.7468" y="9.52539" width="0.842229" height="0.736271" fill="#373D48" />
    <path fill-rule="evenodd" clip-rule="evenodd"
        d="M41.0792 13.6605C41.2666 13.6605 41.4378 13.6224 41.5899 13.5436C41.7421 13.4649 41.8725 13.3562 41.973 13.2149C42.1061 13.3779 42.2447 13.492 42.3941 13.5572C42.5435 13.6224 42.7392 13.655 42.9837 13.6605H43.7553C43.9427 13.6605 44.1112 13.6224 44.266 13.5436C44.4209 13.4649 44.5459 13.3562 44.6491 13.2149C44.7822 13.3779 44.9208 13.492 45.0702 13.5572C45.2169 13.6224 45.4153 13.655 45.6598 13.6605H48.7353C49.1184 13.6605 49.4308 13.5083 49.6753 13.204C49.7976 13.3535 49.9416 13.4649 50.1127 13.5436C50.2812 13.6224 50.4388 13.6605 50.5828 13.6605H51.9792V9.18036H51.1669V12.9568H50.5828C50.4197 12.9568 50.2893 12.9324 50.197 12.8862C50.1046 12.84 50.0231 12.7639 49.9579 12.6579C50.0204 12.4406 50.0502 12.2232 50.0502 12.0086C50.0502 11.6473 49.9606 11.3158 49.7786 11.0197C49.5965 10.7235 49.3357 10.4899 48.9961 10.316C48.6538 10.1421 48.2517 10.0552 47.7898 10.0552H47.0698V10.7561H47.7762C48.0887 10.7561 48.3522 10.8159 48.5723 10.9327C48.7896 11.0496 48.9553 11.2071 49.0667 11.4055C49.1781 11.6038 49.2325 11.8239 49.2325 12.0602C49.2325 12.264 49.1917 12.4324 49.1156 12.5656C49.0369 12.7014 48.9418 12.7992 48.8277 12.8617C48.7135 12.9242 48.5994 12.9541 48.4908 12.9541H48.3576C48.5533 12.7748 48.6511 12.5493 48.6511 12.2803C48.6511 12.0901 48.6022 11.9027 48.5071 11.7179C48.412 11.5359 48.268 11.3837 48.0778 11.2669C47.8876 11.1501 47.654 11.0903 47.3769 11.0903C47.1269 11.0903 46.9068 11.1447 46.7112 11.2533C46.5156 11.362 46.3635 11.506 46.2548 11.6853C46.1461 11.8646 46.0918 12.0521 46.0918 12.2477C46.0918 12.5438 46.1869 12.7775 46.377 12.9487H45.6625C45.437 12.9487 45.2686 12.9324 45.1599 12.8997C45.0512 12.8671 44.9534 12.8047 44.8665 12.7096C44.8855 12.6036 44.8964 12.5031 44.8964 12.4053V10.6909H44.0786V12.2749C44.0786 12.4786 44.0242 12.6416 43.9128 12.7639C43.8015 12.8862 43.6683 12.9487 43.5135 12.9487H42.9864C42.7609 12.9487 42.5924 12.9324 42.4838 12.8997C42.3751 12.8671 42.2773 12.8047 42.1904 12.7096C42.2094 12.6036 42.2202 12.5031 42.2202 12.4053V10.6909H41.3997V12.2749C41.3997 12.4786 41.3454 12.6416 41.234 12.7639C41.1226 12.8862 40.9895 12.9487 40.8319 12.9487H33.4638H33.347C33.2002 12.9487 33.0861 12.9079 33.0101 12.8237C32.934 12.7395 32.896 12.5955 32.896 12.3944L32.9014 10.8105C32.3933 10.7317 32.0075 10.6937 31.7359 10.6937C31.4207 10.6937 31.1436 10.7589 30.9018 10.8866C30.6627 11.0142 30.4752 11.1936 30.3448 11.4218C30.2117 11.65 30.1465 11.9054 30.1465 12.1852C30.1465 12.4651 30.209 12.734 30.3339 12.9568C30.4589 13.1796 30.6301 13.3507 30.8474 13.4703C31.0648 13.5898 31.3175 13.6523 31.5783 13.6523C31.9641 13.6523 32.4504 13.5654 32.5889 13.5382C32.7329 13.6116 32.8987 13.6523 33.097 13.6523H33.4583H41.071L41.0792 13.6605ZM47.0396 11.9297C47.1265 11.8428 47.2379 11.802 47.3765 11.802C47.4933 11.802 47.5938 11.8292 47.6808 11.8835C47.765 11.9378 47.8329 12.0085 47.8791 12.09C47.9253 12.1742 47.9497 12.2557 47.9497 12.3399C47.9497 12.522 47.9036 12.6714 47.8139 12.7882C47.7243 12.9023 47.5993 12.9594 47.439 12.9594H47.4145C47.0749 12.8534 46.9065 12.6388 46.9065 12.3155C46.9065 12.1443 46.9499 12.0166 47.0369 11.9297H47.0396ZM30.9967 12.2069C30.9967 12.4405 31.0592 12.6253 31.1814 12.7584H31.1841C31.3064 12.8915 31.4884 12.9595 31.7139 12.9595C31.8498 12.9595 32.0209 12.9513 32.135 12.9459L32.135 12.9459C32.0997 12.8209 32.0807 12.6851 32.0807 12.5329V11.4462C31.9421 11.419 31.8199 11.4054 31.7112 11.4054C31.233 11.4054 30.9967 11.6744 30.9967 12.2069Z"
        fill="#373D48" />
    <path
        d="M42.5405 9.86491H41.8694C41.8395 9.82144 41.8232 9.76438 41.8232 9.69646C41.8232 9.62854 41.8423 9.57149 41.8776 9.53345C41.9156 9.49541 41.9618 9.47368 42.0216 9.47368C42.065 9.47368 42.1194 9.48455 42.1873 9.509L42.334 9.06343C42.2063 9.0254 42.0841 9.00366 41.97 9.00366C41.7662 9.00366 41.6059 9.06072 41.4891 9.17211C41.3722 9.2835 41.3098 9.43836 41.3098 9.62854C41.3098 9.70733 41.3288 9.7834 41.3668 9.86219H41.0815L40.9756 10.3594H42.5432V9.86219L42.5405 9.86491Z"
        fill="#373D48" />
    <rect x="44.4536" y="14.1738" width="0.842229" height="0.736271" fill="#373D48" />
    <rect x="43.2852" y="14.1738" width="0.842229" height="0.736271" fill="#373D48" />
    <rect x="52.979" y="9.18036" width="0.817777" height="4.48011" fill="#373D48" />
    <rect x="1.08118" y="21.1915" width="0.842229" height="0.736271" fill="#373D48" />
    <rect x="2.24963" y="21.1915" width="0.842229" height="0.736271" fill="#373D48" />
    <rect x="6.54749" y="16.5431" width="0.842229" height="0.736271" fill="#373D48" />
    <path
        d="M6.56645 19.9771H5.8655C5.71607 19.9771 5.60468 19.9364 5.52861 19.8522C5.45253 19.7679 5.4145 19.624 5.4145 19.4229V17.0782H4.15659C3.66212 17.0782 3.29806 17.2087 3.06984 17.4668C2.83891 17.7249 2.7248 18.0509 2.7248 18.4394V19.9771H1.68424C1.11098 19.9771 0.825711 19.7163 0.825711 19.1947V17.7792H0.00793457V19.3224C0.00793457 19.7136 0.122043 20.0369 0.352977 20.2923C0.58391 20.5504 0.945253 20.6781 1.43972 20.6781H3.54529V18.5671C3.54529 18.04 3.83057 17.7765 4.40382 17.7765H4.59672V19.5479C4.59672 19.8902 4.68366 20.1646 4.86026 20.3684C5.03414 20.5721 5.28952 20.6754 5.62098 20.6754H7.38151V17.7738H6.56917V19.9717L6.56645 19.9771Z"
        fill="#373D48" />
    <rect x="8.25635" y="16.1981" width="0.817777" height="4.48011" fill="#373D48" />
    <rect x="19.3605" y="21.1915" width="0.842229" height="0.736271" fill="#373D48" />
    <rect x="22.2268" y="21.1915" width="0.842229" height="0.736271" fill="#373D48" />
    <rect x="21.0583" y="21.1915" width="0.842229" height="0.736271" fill="#373D48" />
    <path
        d="M29.9291 19.977H29.345C29.114 19.977 28.9456 19.9607 28.8396 19.9281C28.7309 19.8955 28.6331 19.8303 28.5435 19.7325C28.5679 19.6075 28.5788 19.507 28.5788 19.4336V17.5318H27.761V19.3032C27.761 19.5287 27.7121 19.6972 27.6089 19.8086C27.5056 19.92 27.3779 19.9743 27.2231 19.9743C27.0682 19.9743 26.9188 19.9281 26.7884 19.8357C26.658 19.7434 26.5928 19.6102 26.5928 19.4363V17.7763H25.775V19.3032C25.775 19.507 25.7207 19.67 25.6093 19.7923C25.4979 19.9145 25.3647 19.977 25.2099 19.977H24.8485V17.7791H24.0308V19.977H23.4466C23.2211 19.977 23.0527 19.9607 22.944 19.9281C22.8353 19.8955 22.7375 19.833 22.6506 19.7379C22.6696 19.632 22.6805 19.5314 22.6805 19.4336V17.7193H21.86V19.3032C21.86 19.507 21.8056 19.67 21.6943 19.7923C21.5829 19.9145 21.4497 19.977 21.2922 19.977H20.7651C20.5043 19.977 20.3141 19.9037 20.1973 19.7597C20.2217 19.6537 20.2326 19.545 20.2326 19.4309V17.7763H19.4121V19.3032C19.4121 19.507 19.3578 19.67 19.2464 19.7923C19.135 19.9145 19.0018 19.977 18.847 19.977H11.5305C11.2615 19.977 11.0632 19.8928 10.9409 19.7243V17.7763H10.1231V20.5258C10.1231 20.716 10.096 20.8654 10.0416 20.9741C9.98728 21.0801 9.90578 21.1588 9.79438 21.205C9.68571 21.2512 9.53356 21.2893 9.34338 21.3164V22.0799L9.67212 22.0473C10.0471 22.0038 10.3513 21.8625 10.5877 21.6234C10.8241 21.3843 10.9409 21.0094 10.9409 20.5041V20.4986C11.1447 20.6182 11.3403 20.6807 11.5305 20.6807H19.0915C19.442 20.6807 19.7218 20.5557 19.9337 20.3057C20.0533 20.4307 20.1918 20.5231 20.3413 20.5856C20.4934 20.6481 20.6347 20.678 20.7624 20.678H21.534C21.7214 20.678 21.8926 20.6399 22.0447 20.5611C22.1996 20.4823 22.3273 20.3737 22.4278 20.2324C22.5609 20.3954 22.6995 20.5095 22.8489 20.5747C22.9984 20.6399 23.194 20.6725 23.4385 20.678H25.449C25.7994 20.678 26.0847 20.5475 26.3021 20.2867C26.4107 20.4144 26.5439 20.5122 26.7014 20.5801C26.859 20.6454 27.0709 20.6807 27.3345 20.6807C27.5382 20.6807 27.723 20.6399 27.8941 20.5584C28.0626 20.4769 28.2039 20.3628 28.3125 20.2188C28.4484 20.39 28.5924 20.5095 28.7418 20.5747C28.8912 20.6399 29.0923 20.6752 29.3422 20.6807H30.7387V16.2006H29.9264V19.977H29.9291Z"
        fill="#373D48" />
    <rect x="31.7357" y="16.1981" width="0.817777" height="4.48011" fill="#373D48" />
    <rect x="35.713" y="17.0455" width="0.842229" height="0.736271" fill="#373D48" />
    <path fill-rule="evenodd" clip-rule="evenodd"
        d="M46.1432 17.7194C46.4611 17.7194 46.7382 17.7846 46.9773 17.9123L46.9746 17.9178C47.2164 18.0454 47.4011 18.2248 47.5343 18.453C47.6674 18.6812 47.7326 18.9366 47.7326 19.2164C47.7326 19.5832 47.6158 20.0722 47.3821 20.6835H37.7753V21.7241H36.0283C35.5339 21.7241 35.1725 21.5964 34.9416 21.3383C34.7107 21.0802 34.5966 20.7569 34.5966 20.3684V19.2273H35.4143V20.238C35.4143 20.7623 35.6996 21.0258 36.2729 21.0258H36.9575V17.7792H37.7753V19.9771H44.9804V17.8362C45.4858 17.7575 45.8743 17.7194 46.1432 17.7194ZM45.8008 19.9772H46.7708L46.7735 19.9799C46.8523 19.7109 46.8903 19.4583 46.8903 19.2246C46.8903 18.6894 46.6512 18.4231 46.1758 18.4231C46.0535 18.4231 45.9285 18.4367 45.8008 18.4639V19.9772Z"
        fill="#373D48" />
    <path
        d="M49.3489 17.1053H50.5171V16.725H50.0199C49.9683 16.6978 49.9439 16.6543 49.9439 16.5973C49.9439 16.5674 49.9575 16.5402 49.9819 16.5185C50.0064 16.4967 50.039 16.4859 50.0797 16.4859C50.1449 16.4859 50.2346 16.5022 50.3487 16.5321L50.4356 16.1571C50.2726 16.1028 50.1395 16.0756 50.039 16.0756C49.9031 16.0756 49.7972 16.1164 49.7211 16.1979C49.645 16.2794 49.607 16.3826 49.607 16.5076C49.607 16.5755 49.626 16.6462 49.6668 16.725H49.4494L49.3516 17.1053H49.3489Z"
        fill="#373D48" />
    <path
        d="M52.9868 19.9771H52.4026H52.2858C52.1364 19.9771 52.025 19.9363 51.9489 19.8521C51.8728 19.7679 51.8348 19.6239 51.8348 19.4228V16.0838H51.0143V19.5505C51.0143 19.6021 51.017 19.6728 51.0252 19.7679C50.8404 19.8765 50.6013 19.9445 50.3052 19.9716H50.2835V17.6324H49.463V19.9771H48.4279V20.678H50.1585C50.5524 20.678 50.9111 20.5585 51.2344 20.3221C51.4191 20.5612 51.6854 20.678 52.0359 20.678H52.3972H53.7937V16.1979H52.9813V19.9744L52.9868 19.9771Z"
        fill="#373D48" />
    <path
        d="M1.29887 26.0059C1.47819 26.2585 1.62218 26.484 1.73357 26.6824H1.74444C1.73086 26.3591 1.72271 26.1254 1.72271 25.976V24.8512H2.17642V27.3344H1.69825L0.888628 26.1906C0.747351 25.9923 0.597923 25.7641 0.445779 25.5032H0.434911C0.448496 25.8075 0.456646 26.0439 0.456646 26.2096V27.3344H0.00292969V24.8512H0.481098L1.29887 26.0059Z"
        fill="#373D48" />
    <path fill-rule="evenodd" clip-rule="evenodd"
        d="M3.76895 27.1442H3.76297C3.73852 27.1714 3.70863 27.1958 3.67331 27.223C3.63799 27.2502 3.59996 27.2746 3.55377 27.2991C3.5103 27.3235 3.45868 27.3426 3.40434 27.3561C3.35001 27.3697 3.29023 27.3779 3.22775 27.3779C3.14352 27.3779 3.06202 27.3643 2.98866 27.3371C2.91531 27.31 2.8501 27.2719 2.79848 27.223C2.74414 27.1741 2.70339 27.1116 2.67351 27.041C2.64362 26.9703 2.62732 26.8916 2.62732 26.8019C2.62732 26.7041 2.64362 26.6199 2.67894 26.5411C2.71426 26.465 2.76316 26.3998 2.82565 26.3455C2.88814 26.2911 2.96421 26.2531 3.05115 26.2232C3.13809 26.1933 3.2359 26.1825 3.34186 26.1825C3.42064 26.1825 3.49128 26.1879 3.55649 26.196C3.62169 26.2069 3.67875 26.2178 3.73037 26.2314V26.158C3.73037 26.1173 3.72222 26.0765 3.70863 26.0357C3.69505 25.9977 3.6706 25.9624 3.64071 25.9325C3.60811 25.9026 3.56736 25.8782 3.51845 25.8591C3.46955 25.8401 3.40706 25.832 3.3337 25.832C3.24405 25.832 3.15439 25.8428 3.06745 25.8619C2.9778 25.8809 2.8827 25.9108 2.77675 25.9515V25.6092C2.8664 25.5684 2.96421 25.5386 3.06473 25.5195C3.16526 25.4978 3.27122 25.4869 3.38261 25.4869C3.51302 25.4869 3.62713 25.5032 3.72765 25.5358C3.82546 25.5684 3.90696 25.6119 3.97488 25.669C4.04009 25.726 4.09171 25.7912 4.12431 25.8673C4.15692 25.9434 4.17322 26.0276 4.17322 26.1173V26.7938C4.17322 26.9133 4.17322 27.0138 4.17593 27.1008C4.17593 27.1611 4.17872 27.2172 4.1813 27.2692C4.18232 27.2898 4.18331 27.3097 4.18408 27.329H3.78742L3.76895 27.1442ZM3.59136 26.541C3.6457 26.5492 3.6946 26.5573 3.73535 26.5682V26.5709V26.8453C3.71633 26.867 3.6946 26.8888 3.66743 26.9105C3.64026 26.9322 3.61038 26.9513 3.57777 26.9703C3.54517 26.9866 3.50985 27.0029 3.4691 27.0138C3.43106 27.0246 3.38759 27.0301 3.34412 27.0301C3.30609 27.0301 3.27348 27.0273 3.24088 27.0165C3.20828 27.0083 3.18111 26.992 3.15666 26.973C3.13221 26.9513 3.11319 26.9268 3.09961 26.8969C3.08602 26.867 3.07787 26.8317 3.07787 26.791C3.07787 26.704 3.10776 26.6388 3.17024 26.5954C3.23273 26.5519 3.31695 26.5301 3.42563 26.5301C3.48268 26.5301 3.53702 26.5329 3.59136 26.541Z"
        fill="#373D48" />
    <path
        d="M5.76782 27.3344C5.71891 27.3479 5.65914 27.3615 5.59122 27.3697C5.5233 27.3778 5.45809 27.3833 5.39832 27.3833C5.24618 27.3833 5.12392 27.3588 5.02883 27.3099C4.93374 27.261 4.86582 27.1904 4.82506 27.098C4.79789 27.0328 4.78159 26.9431 4.78159 26.8317V25.8999H4.4447V25.5385H4.78159V25.0359H5.22173V25.5385H5.74065V25.8999H5.22173V26.7747C5.22173 26.8426 5.23259 26.8942 5.25433 26.9295C5.29236 26.9866 5.36572 27.0138 5.47439 27.0138C5.52602 27.0138 5.57492 27.0111 5.62654 27.0029C5.67816 26.9947 5.72435 26.9839 5.76782 26.973V27.3371V27.3344Z"
        fill="#373D48" />
    <path fill-rule="evenodd" clip-rule="evenodd"
        d="M6.5721 24.6475H6.11023V25.1256H6.5721V24.6475ZM6.5612 25.5359H6.12107V27.3344H6.5612V25.5359Z"
        fill="#373D48" />
    <path fill-rule="evenodd" clip-rule="evenodd"
        d="M8.70788 26.8237C8.74864 26.7069 8.77037 26.5792 8.77037 26.4379C8.77037 26.2966 8.74864 26.1689 8.70788 26.0521C8.66713 25.9353 8.60736 25.8375 8.52857 25.7533C8.44978 25.669 8.35469 25.6065 8.2433 25.5604C8.12919 25.5142 7.99878 25.4924 7.86294 25.4924C7.72709 25.4924 7.60212 25.5142 7.49073 25.5604C7.37933 25.6065 7.28424 25.6717 7.20546 25.7533C7.12667 25.8375 7.06418 25.9353 7.02343 26.0521C6.98267 26.1689 6.96094 26.2966 6.96094 26.4379C6.96094 26.5792 6.98267 26.7069 7.02343 26.8237C7.06418 26.9405 7.12395 27.041 7.20274 27.1226C7.28153 27.2068 7.37662 27.2693 7.48801 27.3154C7.60212 27.3616 7.73253 27.3834 7.86837 27.3834C8.00421 27.3834 8.12919 27.3616 8.24058 27.3154C8.35197 27.2693 8.44706 27.2068 8.52585 27.1226C8.60464 27.0383 8.66713 26.9405 8.70788 26.8237ZM8.28393 26.1853C8.30566 26.2586 8.31653 26.3429 8.31653 26.438C8.31653 26.5331 8.30566 26.6173 8.28393 26.6906C8.26219 26.764 8.23231 26.8238 8.19156 26.8727C8.1508 26.9216 8.10462 26.9596 8.05028 26.9841C7.99594 27.0085 7.93889 27.0221 7.87097 27.0221C7.80304 27.0221 7.74327 27.0085 7.68894 26.9841C7.63188 26.9596 7.58569 26.9216 7.54494 26.8727C7.50691 26.8238 7.4743 26.764 7.45257 26.6906C7.43083 26.6173 7.41997 26.5331 7.41997 26.438C7.41997 26.3429 7.43083 26.2586 7.45257 26.1853C7.4743 26.1119 7.50419 26.0494 7.54494 26.0005C7.58298 25.9516 7.63188 25.9136 7.68622 25.8892C7.74056 25.8647 7.80033 25.8511 7.86553 25.8511C7.93074 25.8511 7.99051 25.8647 8.04756 25.8892C8.10462 25.9136 8.1508 25.9516 8.19156 26.0005C8.22959 26.0522 8.26219 26.1119 8.28393 26.1853Z"
        fill="#373D48" />
    <path
        d="M9.56604 25.7885H9.57419C9.60136 25.7505 9.63396 25.7152 9.67199 25.6799C9.71275 25.6445 9.75622 25.6119 9.80784 25.5848C9.85946 25.5576 9.9138 25.5359 9.97628 25.5196C10.0388 25.5033 10.104 25.4951 10.1719 25.4951C10.2371 25.4951 10.2996 25.5033 10.3621 25.5169C10.4246 25.5304 10.4789 25.5549 10.5305 25.5875C10.5821 25.6201 10.6256 25.6608 10.6664 25.7097C10.7071 25.7587 10.737 25.8184 10.7587 25.8891C10.7723 25.9271 10.7805 25.9679 10.7832 26.014C10.7886 26.0602 10.7886 26.1118 10.7886 26.1716V27.3399H10.3485V26.2423C10.3485 26.1934 10.3485 26.1526 10.3431 26.1173C10.3403 26.082 10.3322 26.0521 10.3213 26.0276C10.2996 25.9706 10.2643 25.9298 10.2208 25.9054C10.1746 25.8809 10.1203 25.8673 10.0578 25.8673C9.97357 25.8673 9.88934 25.8863 9.81327 25.9271C9.73448 25.9679 9.66384 26.0249 9.60407 26.1037V27.3426H9.16394V25.544H9.528L9.56875 25.794L9.56604 25.7885Z"
        fill="#373D48" />
    <path fill-rule="evenodd" clip-rule="evenodd"
        d="M12.3242 27.1442H12.3183C12.2938 27.1714 12.2639 27.1958 12.2286 27.223C12.1933 27.2502 12.1553 27.2746 12.1091 27.2991C12.0656 27.3235 12.014 27.3426 11.9596 27.3561C11.9053 27.3697 11.8455 27.3779 11.783 27.3779C11.6988 27.3779 11.6173 27.3643 11.544 27.3371C11.4706 27.31 11.4054 27.2719 11.3538 27.223C11.2994 27.1741 11.2587 27.1116 11.2288 27.041C11.1989 26.9703 11.1826 26.8916 11.1826 26.8019C11.1826 26.7041 11.1989 26.6199 11.2342 26.5411C11.2696 26.4623 11.3185 26.3998 11.3809 26.3455C11.4434 26.2911 11.5195 26.2531 11.6064 26.2232C11.6934 26.1933 11.7912 26.1825 11.8972 26.1825C11.9759 26.1825 12.0466 26.1879 12.1118 26.196C12.177 26.2069 12.234 26.2178 12.2857 26.2314V26.158C12.2857 26.1173 12.2775 26.0765 12.2639 26.0357C12.2503 25.9977 12.2259 25.9624 12.196 25.9325C12.1634 25.9026 12.1227 25.8782 12.0737 25.8591C12.0248 25.8401 11.9624 25.832 11.889 25.832C11.7993 25.832 11.7097 25.8428 11.6227 25.8619C11.5331 25.8809 11.438 25.9108 11.332 25.9515V25.6092C11.4217 25.5684 11.5195 25.5386 11.62 25.5195C11.7206 25.4978 11.8265 25.4869 11.9379 25.4869C12.0683 25.4869 12.1824 25.5032 12.2829 25.5358C12.3808 25.5684 12.4623 25.6119 12.5302 25.669C12.5954 25.726 12.647 25.7912 12.6796 25.8673C12.7122 25.9434 12.7285 26.0276 12.7285 26.1173V26.7938C12.7285 26.9133 12.7285 27.0138 12.7312 27.1008C12.7312 27.1611 12.734 27.2172 12.7366 27.2692C12.7376 27.2898 12.7386 27.3097 12.7394 27.329H12.3427L12.3242 27.1442ZM12.1471 26.541C12.2015 26.5492 12.2504 26.5573 12.2911 26.5682V26.5709V26.8453C12.2721 26.867 12.2504 26.8888 12.2232 26.9105C12.196 26.9322 12.1662 26.9513 12.1336 26.9703C12.101 26.9866 12.0656 27.0029 12.0249 27.0138C11.9868 27.0246 11.9434 27.0301 11.8999 27.0301C11.8619 27.0301 11.8293 27.0273 11.7967 27.0165C11.7641 27.0083 11.7369 26.992 11.7124 26.973C11.688 26.9513 11.669 26.9268 11.6554 26.8969C11.6418 26.867 11.6337 26.8317 11.6337 26.791C11.6337 26.704 11.6635 26.6388 11.726 26.5954C11.7885 26.5519 11.8727 26.5301 11.9814 26.5301C12.0385 26.5301 12.0928 26.5329 12.1471 26.541Z"
        fill="#373D48" />
    <path d="M13.2418 27.3344V24.6475H13.682V27.3344H13.2418Z" fill="#373D48" />
    <path
        d="M16.2308 25.1909C16.1058 25.1909 15.9917 25.2126 15.8885 25.2534C15.7852 25.2941 15.6956 25.3539 15.6195 25.4327C15.5434 25.5115 15.4864 25.6066 15.4429 25.7207C15.4022 25.8348 15.3804 25.9652 15.3804 26.1119C15.3804 26.2586 15.3994 26.3863 15.4375 26.4977C15.4755 26.6091 15.5298 26.7015 15.6032 26.7748C15.6738 26.8482 15.7635 26.9053 15.8667 26.9433C15.97 26.9813 16.0868 27.0003 16.2172 27.0003C16.3123 27.0003 16.4074 26.9922 16.5052 26.9786C16.603 26.965 16.6954 26.9433 16.7796 26.9134V27.3046C16.6927 27.3291 16.6003 27.3481 16.4998 27.3644C16.3992 27.378 16.296 27.3861 16.1873 27.3861C15.9781 27.3861 15.7934 27.3563 15.6331 27.2965C15.4728 27.2367 15.3397 27.1525 15.2337 27.0411C15.1277 26.9324 15.0462 26.7993 14.9919 26.6471C14.9376 26.495 14.9104 26.3266 14.9104 26.1418C14.9104 25.9571 14.9403 25.7778 14.9973 25.6147C15.0544 25.4517 15.1386 25.3132 15.2473 25.1936C15.356 25.0741 15.4918 24.9817 15.6548 24.9138C15.8178 24.8459 16.0026 24.8105 16.2063 24.8105C16.3123 24.8105 16.4101 24.8187 16.5052 24.8323C16.6003 24.8459 16.6845 24.8676 16.7606 24.8921V25.2778C16.6628 25.248 16.5704 25.2262 16.4835 25.2126C16.3992 25.1991 16.315 25.1936 16.2335 25.1936L16.2308 25.1909Z"
        fill="#373D48" />
    <path
        d="M16.8258 25.5385H17.2958L17.5648 26.1906C17.6653 26.4378 17.7387 26.6198 17.7794 26.7394H17.7876C17.8175 26.647 17.8854 26.4758 17.9832 26.2232L18.2603 25.5385H18.7385L17.5811 28.1983H17.1464L17.5594 27.2366L16.8258 25.5385Z"
        fill="#373D48" />
    <path fill-rule="evenodd" clip-rule="evenodd"
        d="M20.6563 26.8345C20.7025 26.7095 20.7269 26.5683 20.7269 26.4052L20.7215 26.4025C20.7215 26.2504 20.6997 26.1145 20.6563 25.9977C20.6128 25.8809 20.553 25.7831 20.4797 25.7097C20.4063 25.6364 20.3221 25.5793 20.227 25.544C20.1319 25.5087 20.0341 25.4897 19.9336 25.4897C19.8847 25.4897 19.8358 25.4951 19.7896 25.5032C19.7434 25.5114 19.7027 25.525 19.6619 25.5386C19.6239 25.5521 19.5858 25.5684 19.5532 25.5875C19.5206 25.6065 19.488 25.6255 19.4609 25.6445H19.4581C19.4609 25.6201 19.4609 25.5848 19.4609 25.5386V25.5386V25.3919V24.6447H19.0207V26.9106C19.0207 26.9449 19.0201 26.9799 19.0194 27.0159C19.0187 27.0539 19.018 27.0929 19.018 27.1334C19.018 27.1764 19.0164 27.2154 19.0149 27.2508C19.0137 27.2802 19.0126 27.307 19.0126 27.3317H19.3766L19.4201 27.1415H19.4283C19.4446 27.1632 19.4663 27.1877 19.4935 27.2149C19.5206 27.242 19.5559 27.2692 19.5967 27.2937C19.6375 27.3181 19.6864 27.3398 19.7407 27.3561C19.795 27.3724 19.8575 27.3806 19.9254 27.3806C20.0232 27.3806 20.1183 27.3589 20.2134 27.3208C20.3085 27.2828 20.3955 27.223 20.4715 27.1415C20.5476 27.0627 20.6101 26.9595 20.6563 26.8345ZM20.2731 26.4256C20.2731 26.4261 20.2731 26.4265 20.2731 26.427V26.4243C20.2731 26.4247 20.2731 26.4252 20.2731 26.4256ZM20.2324 26.1363C20.2594 26.2175 20.273 26.3148 20.2731 26.4256C20.273 26.5174 20.2622 26.5985 20.246 26.6715C20.2297 26.7449 20.1998 26.8074 20.1645 26.8617C20.1264 26.9133 20.083 26.9541 20.0286 26.984C19.977 27.0139 19.9118 27.0274 19.8412 27.0274C19.7977 27.0274 19.7597 27.022 19.7216 27.0111C19.6836 27.0003 19.651 26.9867 19.6184 26.9677L19.6184 26.9677C19.5885 26.9486 19.5586 26.9296 19.5342 26.9079C19.507 26.8862 19.4853 26.8644 19.469 26.8454V25.9842C19.5233 25.9407 19.5858 25.9054 19.651 25.8809C19.7162 25.8565 19.7814 25.8429 19.8466 25.8429C19.8928 25.8429 19.939 25.851 19.9879 25.8646C20.0368 25.8809 20.083 25.9081 20.1264 25.9516C20.1699 25.9923 20.2052 26.0548 20.2324 26.1363Z"
        fill="#373D48" />
    <path fill-rule="evenodd" clip-rule="evenodd"
        d="M22.311 27.0003C22.2186 27.0193 22.129 27.0275 22.0447 27.0275C21.9659 27.0275 21.8953 27.0193 21.8274 27.003C21.7595 26.9867 21.6997 26.9595 21.6508 26.9242C21.5992 26.8862 21.5584 26.8373 21.5285 26.7802C21.4986 26.7232 21.4796 26.6498 21.4742 26.5683H22.6533C22.656 26.5248 22.6587 26.4732 22.6587 26.4107C22.6587 26.2504 22.637 26.1119 22.599 25.9951C22.5609 25.8755 22.5066 25.7804 22.436 25.7071C22.3653 25.6337 22.2838 25.5794 22.186 25.5441C22.0882 25.5087 21.9795 25.4924 21.8709 25.4924C21.7622 25.4924 21.6589 25.5114 21.5557 25.5522C21.4525 25.593 21.3628 25.6527 21.284 25.7342C21.2052 25.8157 21.14 25.9163 21.0938 26.0385C21.0476 26.1608 21.0232 26.3021 21.0232 26.4678C21.0232 26.6335 21.0476 26.7775 21.0993 26.8916C21.1509 27.0057 21.2188 27.1008 21.303 27.1742C21.3873 27.2448 21.4851 27.2991 21.6019 27.3317C21.7187 27.3644 21.8383 27.3807 21.9659 27.3807C22.0936 27.3807 22.2159 27.3698 22.3327 27.3481C22.4495 27.3263 22.5365 27.3019 22.5935 27.2774V26.9269C22.4985 26.9595 22.4034 26.984 22.311 27.0003ZM21.8671 25.8373C21.8675 25.8373 21.8679 25.8373 21.8683 25.8373H21.8656C21.8661 25.8373 21.8666 25.8373 21.8671 25.8373ZM21.7189 25.8672C21.762 25.8483 21.8132 25.8374 21.8671 25.8373C21.9235 25.8374 21.9719 25.8456 22.0123 25.8672C22.053 25.8889 22.0884 25.9161 22.1155 25.9514C22.1427 25.9867 22.1644 26.0275 22.178 26.0737C22.1916 26.1198 22.1998 26.1687 22.1998 26.2231H21.4934C21.5015 26.1715 21.5124 26.1198 21.5314 26.0737C21.5504 26.0275 21.5749 25.9867 21.6075 25.9514C21.6374 25.9161 21.6754 25.8889 21.7189 25.8672Z"
        fill="#373D48" />
    <path
        d="M24.134 25.8863H24.096C23.9602 25.8863 23.8433 25.9054 23.7401 25.9461C23.6369 25.9869 23.5581 26.0466 23.5037 26.1309V27.3344H23.0636V25.5359H23.4277L23.4684 25.7858H23.4766C23.5282 25.6935 23.5988 25.6228 23.6912 25.5685C23.7809 25.5169 23.8922 25.4897 24.0199 25.4897C24.0634 25.4897 24.1014 25.4897 24.134 25.4978V25.8836V25.8863Z"
        fill="#373D48" />
    <path
        d="M25.1906 26.8155C25.1906 26.7775 25.1797 26.7449 25.158 26.7205C25.1362 26.696 25.1063 26.6743 25.071 26.658C25.0357 26.6417 24.995 26.6281 24.9488 26.6145C24.9026 26.6009 24.8537 26.59 24.8021 26.5765C24.7369 26.5602 24.6771 26.5384 24.6173 26.5167C24.5575 26.495 24.5059 26.4651 24.4597 26.427C24.4135 26.389 24.3782 26.3428 24.3511 26.2858C24.3239 26.2287 24.3103 26.1608 24.3103 26.0793C24.3103 25.9788 24.3293 25.8918 24.3646 25.8185C24.4 25.7451 24.4489 25.6826 24.5114 25.6364C24.5738 25.5902 24.6445 25.5522 24.726 25.5278C24.8075 25.5033 24.8917 25.4924 24.9841 25.4924C25.0955 25.4924 25.1987 25.5006 25.2938 25.5196C25.3916 25.5386 25.4786 25.5604 25.5546 25.5902V25.9489C25.5139 25.9353 25.4704 25.9217 25.4269 25.9108C25.3807 25.9 25.3373 25.8891 25.2884 25.8809C25.2422 25.8728 25.196 25.8646 25.1498 25.8592C25.1036 25.8538 25.0602 25.8511 25.0194 25.8511C24.9678 25.8511 24.9243 25.8565 24.889 25.8646C24.8537 25.8755 24.8238 25.8891 24.8021 25.9054C24.7803 25.9217 24.764 25.9407 24.7532 25.9624C24.7423 25.9842 24.7396 26.0059 24.7396 26.0304C24.7396 26.0711 24.7504 26.1037 24.7722 26.1309C24.7939 26.1581 24.8238 26.1771 24.8618 26.1934C24.8999 26.2097 24.9406 26.2233 24.9814 26.2341C25.0221 26.245 25.0629 26.2559 25.1036 26.264C25.1661 26.2776 25.2286 26.2966 25.2884 26.3184C25.3509 26.3401 25.4052 26.37 25.4541 26.4053C25.503 26.4406 25.5438 26.4922 25.5764 26.552C25.609 26.6118 25.6225 26.6879 25.6225 26.7802C25.6225 26.8808 25.6035 26.9704 25.5655 27.0465C25.5275 27.1226 25.4731 27.185 25.4052 27.2339C25.3373 27.2828 25.2531 27.3209 25.158 27.3453C25.0629 27.3698 24.9569 27.3807 24.8428 27.3807C24.7287 27.3807 24.6255 27.3725 24.5358 27.3535C24.4461 27.3345 24.3701 27.3127 24.3103 27.2856V26.9324C24.4081 26.9677 24.495 26.9921 24.5766 27.0057C24.6581 27.0193 24.7341 27.0247 24.8048 27.0247C24.8591 27.0247 24.9107 27.022 24.9569 27.0139C25.0031 27.0057 25.0439 26.9921 25.0792 26.9758C25.1145 26.9595 25.1389 26.9378 25.1607 26.9106C25.1797 26.8835 25.1906 26.8536 25.1906 26.8155Z"
        fill="#373D48" />
    <path fill-rule="evenodd" clip-rule="evenodd"
        d="M27.1988 27.0003C27.1064 27.0193 27.0168 27.0275 26.9326 27.0275C26.8538 27.0275 26.7831 27.0193 26.7152 27.003C26.6473 26.9867 26.5875 26.9595 26.5386 26.9242C26.487 26.8862 26.4462 26.8373 26.4163 26.7802C26.3865 26.7232 26.3674 26.6498 26.362 26.5683H27.5411C27.5438 26.5248 27.5466 26.4732 27.5466 26.4107C27.5466 26.2504 27.5248 26.1119 27.4868 25.9951C27.4488 25.8755 27.3944 25.7804 27.3238 25.7071C27.2531 25.6337 27.1716 25.5794 27.0738 25.5441C26.976 25.5087 26.8673 25.4924 26.7587 25.4924C26.65 25.4924 26.5468 25.5114 26.4435 25.5522C26.3403 25.593 26.2506 25.6527 26.1718 25.7342C26.093 25.8157 26.0278 25.9163 25.9816 26.0385C25.9355 26.1608 25.911 26.3021 25.911 26.4678C25.911 26.6335 25.9355 26.7775 25.9871 26.8916C26.0387 27.0057 26.1066 27.1008 26.1908 27.1742C26.2751 27.2448 26.3729 27.2991 26.4897 27.3317C26.6065 27.3644 26.7261 27.3807 26.8538 27.3807C26.9815 27.3807 27.1037 27.3698 27.2205 27.3481C27.3374 27.3263 27.4243 27.3019 27.4814 27.2774V26.9269C27.3863 26.9595 27.2912 26.984 27.1988 27.0003ZM26.7545 25.8373C26.7549 25.8373 26.7553 25.8373 26.7557 25.8373H26.753C26.7535 25.8373 26.754 25.8373 26.7545 25.8373ZM26.6063 25.8672C26.6495 25.8483 26.7006 25.8374 26.7545 25.8373C26.8109 25.8374 26.8593 25.8456 26.8997 25.8672C26.9405 25.8889 26.9758 25.9161 27.003 25.9514C27.0301 25.9867 27.0519 26.0275 27.0655 26.0737C27.079 26.1198 27.0872 26.1687 27.0872 26.2231H26.3808C26.389 26.1715 26.3998 26.1198 26.4188 26.0737C26.4379 26.0275 26.4623 25.9867 26.4949 25.9514C26.5248 25.9161 26.5628 25.8889 26.6063 25.8672Z"
        fill="#373D48" />
    <path
        d="M29.2498 27.2964C29.1955 27.3209 29.1248 27.3399 29.046 27.3562C28.9645 27.3725 28.8803 27.3806 28.7906 27.3806C28.6602 27.3806 28.5407 27.3616 28.4266 27.3236C28.3152 27.2855 28.2147 27.2312 28.1305 27.1551C28.0462 27.0791 27.981 26.984 27.9321 26.8671C27.8832 26.7503 27.8588 26.6172 27.8588 26.4623C27.8588 26.2884 27.8859 26.1417 27.943 26.0168C27.9973 25.8918 28.0707 25.7913 28.1603 25.7152C28.25 25.6391 28.3478 25.5821 28.4592 25.544C28.5706 25.5087 28.6793 25.4897 28.7879 25.4897C28.8694 25.4897 28.9455 25.4978 29.0189 25.5114C29.0922 25.525 29.1601 25.544 29.2199 25.5685V25.9271C29.1656 25.9026 29.1085 25.8836 29.046 25.87C28.9835 25.8565 28.9183 25.8483 28.8477 25.8483C28.7771 25.8483 28.7091 25.8592 28.6467 25.8809C28.5842 25.9026 28.5244 25.938 28.4755 25.9842C28.4266 26.0303 28.3858 26.0928 28.3587 26.1716C28.3288 26.2477 28.3152 26.3428 28.3152 26.4515C28.3152 26.5302 28.3261 26.6063 28.3478 26.6742C28.3695 26.7449 28.4021 26.8046 28.4456 26.8536C28.4891 26.9025 28.5434 26.9432 28.6086 26.9731C28.6738 27.003 28.7526 27.0193 28.8423 27.0193C28.9238 27.0193 28.9944 27.0111 29.0623 26.9948C29.1303 26.9785 29.19 26.9595 29.2471 26.9351V27.2937L29.2498 27.2964Z"
        fill="#373D48" />
    <path
        d="M30.4234 27.3833C30.2441 27.3833 30.092 27.3534 29.9751 27.2909C29.8556 27.2284 29.7659 27.1469 29.7062 27.0437C29.6736 26.9893 29.6491 26.9268 29.6355 26.8589C29.622 26.791 29.6111 26.7176 29.6111 26.6361V25.5385H30.0512V26.5899C30.0512 26.6497 30.0567 26.704 30.0648 26.7475C30.073 26.791 30.0865 26.829 30.1028 26.8616C30.1327 26.916 30.1735 26.9567 30.2278 26.9839C30.2821 27.0111 30.3474 27.0246 30.4234 27.0246C30.5022 27.0246 30.5701 27.0111 30.6272 26.9812C30.6842 26.9513 30.725 26.9051 30.7549 26.8453C30.7821 26.7883 30.7984 26.7068 30.7984 26.6035V25.5412H31.2385V26.6388C31.2385 26.7856 31.214 26.9078 31.1624 27.0083C31.1352 27.0654 31.0972 27.117 31.051 27.1632C31.0048 27.2094 30.9532 27.2501 30.8907 27.2827C30.8282 27.3153 30.7603 27.3398 30.6815 27.3588C30.6055 27.3778 30.5185 27.386 30.4234 27.386V27.3833Z"
        fill="#373D48" />
    <path
        d="M32.7681 25.8863H32.73C32.5942 25.8863 32.4774 25.9054 32.3741 25.9461C32.2709 25.9869 32.1921 26.0466 32.1378 26.1309V27.3344H31.6976V25.5359H32.0617L32.1024 25.7858H32.1106C32.1622 25.6935 32.2329 25.6228 32.3252 25.5685C32.4149 25.5169 32.5263 25.4897 32.654 25.4897C32.6974 25.4897 32.7355 25.4897 32.7681 25.4978V25.8836V25.8863Z"
        fill="#373D48" />
    <path fill-rule="evenodd" clip-rule="evenodd"
        d="M33.4909 24.6475H33.0291V25.1256H33.4909V24.6475ZM33.4799 25.5359H33.0398V27.3344H33.4799V25.5359Z"
        fill="#373D48" />
    <path
        d="M35.072 27.3344C35.0231 27.3479 34.9633 27.3615 34.8954 27.3697C34.8275 27.3778 34.7623 27.3833 34.7025 27.3833C34.5504 27.3833 34.4281 27.3588 34.333 27.3099C34.2379 27.261 34.17 27.1904 34.1293 27.098C34.1021 27.0328 34.0858 26.9431 34.0858 26.8317V25.8999H33.7489V25.5385H34.0858V25.0359H34.5259V25.5385H35.0448V25.8999H34.5259V26.7747C34.5259 26.8426 34.5368 26.8942 34.5585 26.9295C34.5966 26.9866 34.6699 27.0138 34.7786 27.0138C34.8302 27.0138 34.8791 27.0111 34.9307 27.0029C34.9824 26.9947 35.0285 26.9839 35.072 26.973V27.3371V27.3344Z"
        fill="#373D48" />
    <path
        d="M35.1915 25.5385H35.6615L35.9305 26.1906C36.031 26.4378 36.1044 26.6198 36.1451 26.7394H36.1533C36.1832 26.647 36.2511 26.4758 36.3489 26.2232L36.626 25.5385H37.1042L35.9468 28.1983H35.5121L35.9251 27.2366L35.1915 25.5385H35.1915Z"
        fill="#373D48" />
    <path fill-rule="evenodd" clip-rule="evenodd"
        d="M38.6937 26.7041H39.6283L39.8728 27.3372H40.3537L39.3675 24.8539H38.9518L37.9656 27.3372H38.4492L38.6937 26.7041ZM38.9249 26.1036C38.9956 25.927 39.0717 25.7123 39.1586 25.4515H39.1667C39.2537 25.7096 39.3298 25.927 39.3977 26.1036L39.4819 26.3236H38.8407L38.9249 26.1036Z"
        fill="#373D48" />
    <path
        d="M41.443 27.3833C41.2636 27.3833 41.1115 27.3534 40.9947 27.2909C40.8751 27.2284 40.7855 27.1469 40.7257 27.0437C40.6931 26.9893 40.6687 26.9268 40.6551 26.8589C40.6388 26.791 40.6306 26.7176 40.6306 26.6361V25.5385H41.0707V26.5899C41.0707 26.6497 41.0762 26.704 41.0843 26.7475C41.0925 26.791 41.1061 26.829 41.1224 26.8616C41.1523 26.916 41.193 26.9567 41.2473 26.9839C41.3017 27.0111 41.3669 27.0246 41.443 27.0246C41.5217 27.0246 41.5897 27.0111 41.6467 26.9812C41.7038 26.9513 41.7445 26.9051 41.7744 26.8453C41.8016 26.7883 41.8179 26.7068 41.8179 26.6035V25.5412H42.258V26.6388C42.258 26.7856 42.2336 26.9078 42.1819 27.0083C42.1548 27.0654 42.1167 27.117 42.0706 27.1632C42.0244 27.2094 41.9727 27.2501 41.9103 27.2827C41.8478 27.3153 41.7798 27.3398 41.7038 27.3588C41.6277 27.3778 41.5408 27.386 41.4457 27.386L41.443 27.3833Z"
        fill="#373D48" />
    <path
        d="M43.8176 27.3344C43.7687 27.3479 43.7089 27.3615 43.641 27.3697C43.5731 27.3778 43.5079 27.3833 43.4481 27.3833C43.296 27.3833 43.1737 27.3588 43.0786 27.3099C42.9835 27.261 42.9156 27.1904 42.8749 27.098C42.845 27.0328 42.8314 26.9431 42.8314 26.8317V25.8999H42.4945V25.5385H42.8314V25.0359H43.2715V25.5385H43.7905V25.8999H43.2715V26.7747C43.2715 26.8426 43.2824 26.8942 43.3041 26.9295C43.3422 26.9866 43.4155 27.0138 43.5242 27.0138C43.5758 27.0138 43.6247 27.0111 43.6763 27.0029C43.728 26.9947 43.7742 26.9839 43.8176 26.973V27.3371V27.3344Z"
        fill="#373D48" />
    <path
        d="M44.6192 25.381C44.6192 25.4734 44.6192 25.5494 44.6138 25.6092C44.6111 25.669 44.6057 25.7233 44.5975 25.7722H44.6057C44.6328 25.7369 44.6627 25.7043 44.7007 25.669C44.7388 25.6337 44.7795 25.6038 44.8257 25.5793C44.8719 25.5549 44.9235 25.5331 44.9806 25.5168C45.0376 25.5005 45.1001 25.4924 45.1708 25.4924C45.2305 25.4924 45.2876 25.4978 45.3446 25.5087C45.4017 25.5195 45.4533 25.5386 45.5022 25.563C45.5511 25.5875 45.5946 25.6201 45.6353 25.6608C45.6761 25.7016 45.7087 25.7478 45.7359 25.8021C45.7603 25.8483 45.7766 25.9026 45.7875 25.9624C45.7984 26.0222 45.8038 26.0928 45.8038 26.1797V27.3344H45.3637V26.2368C45.3637 26.1797 45.3637 26.1363 45.3555 26.101C45.3501 26.0656 45.3419 26.0357 45.3283 26.0086C45.3012 25.9542 45.2659 25.9162 45.217 25.8945C45.168 25.8727 45.1137 25.8619 45.0512 25.8619C44.967 25.8619 44.8882 25.8836 44.8149 25.9244C44.7415 25.9651 44.6763 26.0222 44.6165 26.0982V27.3371H44.1764V24.6501H44.6165V25.3837L44.6192 25.381Z"
        fill="#373D48" />
    <path fill-rule="evenodd" clip-rule="evenodd"
        d="M47.9391 26.8237C47.9798 26.7069 48.0016 26.5792 48.0016 26.4379C48.0016 26.2966 47.9798 26.1689 47.9391 26.0521C47.8983 25.9353 47.8386 25.8348 47.7598 25.7533C47.681 25.669 47.5859 25.6065 47.4745 25.5604C47.3604 25.5142 47.23 25.4924 47.0941 25.4924C46.9583 25.4924 46.8333 25.5142 46.7219 25.5604C46.6105 25.6065 46.5154 25.6717 46.4367 25.7533C46.3579 25.8375 46.2954 25.9353 46.2546 26.0521C46.2139 26.1689 46.1921 26.2966 46.1921 26.4379C46.1921 26.5792 46.2139 26.7069 46.2546 26.8237C46.2954 26.9405 46.3552 27.0383 46.4339 27.1226C46.5127 27.2068 46.6078 27.2693 46.7192 27.3154C46.8333 27.3616 46.9637 27.3834 47.0996 27.3834C47.2354 27.3834 47.3604 27.3616 47.4718 27.3154C47.5832 27.2693 47.6783 27.2068 47.7571 27.1226C47.8358 27.0383 47.8983 26.9405 47.9391 26.8237ZM47.5154 26.1853C47.5371 26.2586 47.548 26.3429 47.548 26.438C47.548 26.5331 47.5371 26.6173 47.5154 26.6906C47.4936 26.764 47.4637 26.8238 47.423 26.8727C47.3822 26.9216 47.3361 26.9596 47.2817 26.9841C47.2274 27.0085 47.1703 27.0221 47.1024 27.0221C47.0345 27.0221 46.9747 27.0085 46.9204 26.9841C46.8633 26.9596 46.8171 26.9216 46.7764 26.8727C46.7383 26.8238 46.7057 26.764 46.684 26.6906C46.6623 26.6173 46.6514 26.5331 46.6514 26.438C46.6514 26.3429 46.6623 26.2586 46.684 26.1853C46.7057 26.1119 46.7356 26.0494 46.7764 26.0005C46.8144 25.9516 46.8633 25.9136 46.9177 25.8892C46.972 25.8647 47.0318 25.8511 47.097 25.8511C47.1622 25.8511 47.2247 25.8647 47.279 25.8892C47.3361 25.9136 47.3822 25.9516 47.423 26.0005C47.461 26.0522 47.4936 26.1119 47.5154 26.1853Z"
        fill="#373D48" />
    <path
        d="M49.4606 25.8863H49.4225C49.2867 25.8863 49.1699 25.9054 49.0666 25.9461C48.9634 25.9869 48.8846 26.0466 48.8303 26.1309V27.3344H48.3901V25.5359H48.7542L48.7949 25.7858H48.8031C48.8547 25.6935 48.9254 25.6228 49.0177 25.5685C49.1074 25.5169 49.2188 25.4897 49.3465 25.4897C49.3899 25.4897 49.428 25.4897 49.4606 25.4978V25.8836V25.8863Z"
        fill="#373D48" />
    <path fill-rule="evenodd" clip-rule="evenodd"
        d="M50.1805 24.6475H49.7186V25.1256H50.1805V24.6475ZM50.1696 25.5359H49.7295V27.3344H50.1696V25.5359Z"
        fill="#373D48" />
    <path
        d="M51.7616 27.3344C51.7127 27.3479 51.6529 27.3615 51.585 27.3697C51.5171 27.3778 51.4519 27.3833 51.3921 27.3833C51.24 27.3833 51.1177 27.3588 51.0226 27.3099C50.9275 27.261 50.8596 27.1904 50.8188 27.098C50.7917 27.0328 50.7754 26.9431 50.7754 26.8317V25.8999H50.4385V25.5385H50.7754V25.0359H51.2155V25.5385H51.7344V25.8999H51.2155V26.7747C51.2155 26.8426 51.2264 26.8942 51.2481 26.9295C51.2861 26.9866 51.3595 27.0138 51.4682 27.0138C51.5198 27.0138 51.5687 27.0111 51.6203 27.0029C51.6719 26.9947 51.7181 26.9839 51.7616 26.973V27.3371V27.3344Z"
        fill="#373D48" />
    <path
        d="M51.884 25.5385H52.3541L52.623 26.1906C52.7235 26.4378 52.7969 26.6198 52.8377 26.7394H52.8458C52.8757 26.647 52.9436 26.4758 53.0414 26.2232L53.3185 25.5385H53.7967L52.6393 28.1983H52.2046L52.6176 27.2366L51.884 25.5385H51.884Z"
        fill="#373D48" />
    <path fill-rule="evenodd" clip-rule="evenodd"
        d="M71.2501 9.25093L68.085 7.32467L68.0822 7.32739C67.8703 7.1997 67.7372 6.96333 67.7372 6.71609V0.608578C67.7372 0.40753 67.9002 0.247235 68.0985 0.247235H68.8076C69.006 0.247235 69.1663 0.40753 69.1663 0.608578V6.31671L70.9051 7.37357V0.358626C70.9051 0.160295 71.0681 0 71.2664 0H71.9728C72.1738 0 72.3341 0.160295 72.3341 0.358626V8.60975C72.3341 8.87872 72.2037 9.12324 71.9945 9.25093C71.7717 9.38677 71.4756 9.38677 71.2501 9.25093ZM74.434 9.50078H75.1403C75.3414 9.50078 75.5017 9.33777 75.5017 9.13944V0.60848C75.5017 0.407432 75.3414 0.247137 75.1403 0.247137H74.434C74.2356 0.247137 74.0726 0.407432 74.0726 0.60848V9.13944C74.0726 9.33777 74.2356 9.50078 74.434 9.50078ZM64.9358 0.755244H65.6395C65.8378 0.755244 65.9981 0.915539 65.9981 1.11387V7.04479C65.9981 7.31648 65.8405 7.56914 65.596 7.68597L62.4309 9.21828C62.3358 9.26447 62.2271 9.28892 62.1212 9.28892C61.9201 9.28892 61.7354 9.20741 61.5968 9.0607C61.4745 8.93029 61.4093 8.74826 61.4093 8.55265V2.12183C61.4093 1.9235 61.5696 1.76048 61.768 1.76048H62.4771C62.6754 1.76048 62.8357 1.9235 62.8357 2.12183V7.43602L64.5745 6.59379V1.11387C64.5745 0.915539 64.7375 0.755244 64.9358 0.755244ZM66.0034 17.3934C66.0034 17.2222 65.9436 17.0565 65.8322 16.9261L62.8382 13.4485V11.1555C62.8382 10.9572 62.6779 10.7941 62.4796 10.7941H61.7705C61.5721 10.7941 61.4118 10.9572 61.4118 11.1555V13.7148C61.4118 13.8859 61.4716 14.0517 61.583 14.1794L64.5743 17.6597V28.6168C64.5743 28.8151 64.7373 28.9781 64.9356 28.9781H65.6447C65.8431 28.9781 66.0034 28.8151 66.0034 28.6168V17.3934ZM62.879 20.7978C63.4876 20.5044 63.868 19.9039 63.868 19.2301H63.8652C63.8652 18.2711 63.0828 17.4886 62.1237 17.4886C61.1647 17.4886 60.3822 18.2711 60.3822 19.2301C60.3822 19.9039 60.7599 20.5044 61.3712 20.7978L61.4119 20.8168V26.0332C61.4119 26.2315 61.5722 26.3918 61.7705 26.3918H62.4796C62.678 26.3918 62.8383 26.2315 62.8383 26.0332V20.8168L62.879 20.7978ZM62.8197 19.2301C62.8197 18.847 62.5072 18.5346 62.1241 18.5346C61.7411 18.5346 61.4286 18.847 61.4286 19.2301C61.4286 19.6132 61.7411 19.9256 62.1241 19.9256C62.5072 19.9256 62.8197 19.6132 62.8197 19.2301ZM59.3119 3.46138H58.6028C58.4044 3.46138 58.2441 3.62439 58.2441 3.82272V20.2489C58.2441 20.4472 58.4044 20.6102 58.6028 20.6102H59.3119C59.5102 20.6102 59.6705 20.4472 59.6705 20.2489V3.82544C59.6705 3.62711 59.5102 3.4641 59.3119 3.4641V3.46138ZM83.9325 3.46138H84.6389V3.4641C84.8372 3.4641 85.0002 3.62711 85.0002 3.82544V20.2489C85.0002 20.4472 84.8372 20.6102 84.6389 20.6102H83.9325C83.7314 20.6102 83.5711 20.4472 83.5711 20.2489V3.82272C83.5711 3.62439 83.7314 3.46138 83.9325 3.46138ZM81.4737 1.75783H80.7673C80.5662 1.75783 80.4059 1.92085 80.4059 2.11918V11.669C80.4059 11.8673 80.5662 12.0303 80.7673 12.0303H81.4737C81.672 12.0303 81.835 11.8673 81.835 11.669V2.12189C81.835 1.92356 81.672 1.76055 81.4737 1.76055V1.75783ZM80.7591 20.3982C80.8732 20.3303 80.9982 20.2977 81.1204 20.2977L81.1231 20.295C81.2997 20.295 81.4736 20.3602 81.6122 20.4879C81.7535 20.621 81.8377 20.8193 81.8377 21.0339V26.0303C81.8377 26.2286 81.6747 26.3889 81.4763 26.3889H80.77C80.5689 26.3889 80.4086 26.2286 80.4086 26.0303V22.2593L78.6698 23.2781V28.614C78.6698 28.8123 78.5095 28.9753 78.3085 28.9753H77.6021C77.4038 28.9753 77.2407 28.8123 77.2407 28.614V22.8678C77.2407 22.6179 77.3739 22.3815 77.5939 22.2538L80.7591 20.3982ZM74.7928 23.7427H74.7547L71.5896 23.8976C71.2065 23.9166 70.9104 24.2317 70.9104 24.6094V31.6678C70.9104 31.8661 71.0734 32.0264 71.2717 32.0264H71.9781C72.1791 32.0264 72.3394 31.8661 72.3394 31.6678V25.2886L74.0782 25.2017V30.4208C74.0782 30.6191 74.2412 30.7821 74.4396 30.7821H75.146C75.347 30.7821 75.5073 30.6191 75.5073 30.4208V24.4545C75.5073 24.3866 75.4991 24.3268 75.4856 24.2725C75.3986 23.9546 75.1188 23.7373 74.7955 23.7373L74.7928 23.7427ZM68.457 30.7847C69.4188 30.7847 70.1986 30.0023 70.1986 29.0432H70.204C70.204 28.3694 69.8263 27.769 69.2151 27.4756L69.1743 27.4539V23.0906C69.1743 22.8922 69.014 22.7319 68.8157 22.7319H68.1066C67.9082 22.7319 67.7452 22.8922 67.7452 23.0906V27.4539L67.7045 27.4756C67.0959 27.769 66.7155 28.3694 66.7155 29.0432C66.7155 30.005 67.4953 30.7847 68.457 30.7847ZM69.1526 29.0433C69.1526 28.6602 68.8401 28.3478 68.457 28.3478C68.074 28.3478 67.7615 28.6602 67.7615 29.0433C67.7615 29.4264 68.074 29.7388 68.457 29.7388C68.8401 29.7388 69.1526 29.4264 69.1526 29.0433ZM81.835 15.3421C81.835 15.1275 81.7427 14.9319 81.5796 14.7933L81.5742 14.7987L78.6644 12.3698V4.08612L78.7052 4.06439C79.3083 3.7764 79.6941 3.15967 79.6941 2.49676C79.6941 1.53498 78.9144 0.755244 77.9526 0.755244C76.9909 0.755244 76.2111 1.5377 76.2111 2.49676C76.2111 3.15967 76.5996 3.7764 77.2001 4.06439L77.2408 4.08612V12.6986C77.2408 12.9105 77.3332 13.1116 77.4962 13.2474L80.406 15.6763V17.1216C80.406 17.32 80.5663 17.4803 80.7673 17.4803H81.4737C81.672 17.4803 81.835 17.32 81.835 17.1216V15.3421ZM78.6479 2.49129C78.6479 2.10821 78.3382 1.79577 77.9551 1.79577C77.5721 1.79577 77.2596 2.10821 77.2596 2.49129C77.2596 2.87437 77.5693 3.18681 77.9551 3.18681C78.3409 3.18681 78.6479 2.87709 78.6479 2.49129ZM72.5461 18.923C73.6328 18.1542 74.4914 17.5483 76.184 18.0292L76.1921 18.0265C76.222 18.0346 76.2383 18.0618 76.2383 18.0917C76.2356 18.1216 76.2111 18.1433 76.1812 18.1487C74.5124 18.2867 73.724 18.9066 72.8887 19.5636L72.8775 19.5724C72.8629 19.5838 72.8482 19.5952 72.8336 19.6067C72.6626 19.74 72.4867 19.8772 72.3016 20.0098C72.8748 20.3874 73.4915 20.7433 74.1219 20.8574C74.1545 20.8656 74.1762 20.89 74.1843 20.9226C74.1843 20.9471 74.168 20.9878 74.1436 20.9987C73.8746 21.1427 73.6111 21.2052 73.3584 21.2052C72.7743 21.2052 72.2201 20.8765 71.6332 20.4771C70.791 21.0503 70.0167 21.4769 69.1228 20.9987C69.0984 20.9878 69.0821 20.9471 69.0821 20.9226C69.0848 20.89 69.112 20.8656 69.1418 20.8574C69.7749 20.7433 70.3889 20.3874 70.9649 20.0098C70.7875 19.8845 70.6225 19.755 70.4592 19.6269C70.4348 19.6077 70.4105 19.5887 70.3862 19.5696L70.3784 19.5635C69.5444 18.9083 68.7536 18.2868 67.0852 18.1487C67.0553 18.146 67.0281 18.1216 67.0281 18.0917C67.0254 18.0618 67.0444 18.0346 67.0716 18.0265C68.7669 17.5456 69.6254 18.1514 70.7122 18.9203C70.8426 19.0154 70.9784 19.1105 71.117 19.2056C71.3479 17.4124 71.3072 15.2607 71.2637 14.5489C70.8181 14.8206 70.2884 15.3259 69.9325 16.649L69.8835 16.831C69.8754 16.8582 69.8564 16.8772 69.8211 16.8772C69.7912 16.8745 69.7667 16.8528 69.7613 16.8256L69.7287 16.6381C69.495 15.3286 70.1715 14.3994 70.4568 14.0789C70.3291 14.0979 70.1389 14.1441 69.908 14.25C69.5412 14.4185 68.9897 14.7907 68.4436 15.584L68.3241 15.7552C68.3078 15.7796 68.2752 15.7905 68.2507 15.7796C68.2208 15.766 68.2045 15.7361 68.2127 15.709L68.2534 15.5025C68.6039 13.7881 69.8428 13.2149 70.2911 13.06C70.0547 12.9785 69.476 12.8862 68.3703 13.2529L68.229 13.2991C68.1991 13.31 68.1719 13.2991 68.1556 13.2747C68.1393 13.2529 68.142 13.223 68.1611 13.2013L68.2589 13.0872C69.1011 12.101 70.3182 12.1879 70.7475 12.2558C70.6416 12.1037 70.4242 11.87 70.0629 11.6174L69.9162 11.5169C69.8917 11.5005 69.8808 11.4707 69.8917 11.4435C69.9026 11.4136 69.9325 11.3973 69.9596 11.4027L70.1362 11.4272C70.7828 11.5196 71.2012 11.7885 71.3941 11.9597C71.4104 11.7804 71.4485 11.5413 71.5354 11.3484L71.5734 11.2587C71.5843 11.237 71.606 11.2207 71.6305 11.2207C71.6549 11.2207 71.6767 11.237 71.6875 11.2615L71.7256 11.3484C71.8098 11.5413 71.8478 11.7804 71.8669 11.9597C71.9647 11.8728 72.1168 11.7641 72.326 11.6636C72.5352 11.563 72.8015 11.4734 73.1248 11.4272L73.3014 11.4027C73.3285 11.4 73.3584 11.4163 73.3693 11.4435C73.3774 11.4707 73.3693 11.5005 73.3448 11.5169L73.1981 11.6174C72.8368 11.87 72.6194 12.1064 72.5135 12.2558C72.94 12.1879 74.1599 12.0983 75.0021 13.0872L75.0999 13.2013C75.1189 13.2203 75.1189 13.2502 75.1054 13.2747C75.0891 13.2991 75.0565 13.3073 75.032 13.2991L74.888 13.2529C73.7768 12.8889 73.2036 12.9785 72.9672 13.06C73.4128 13.2149 74.6571 13.7936 75.0076 15.5052L75.0483 15.709C75.0537 15.7416 75.0374 15.7715 75.0103 15.7823C74.9831 15.7932 74.9532 15.7823 74.9342 15.7579L74.8174 15.5867C74.274 14.7934 73.717 14.4239 73.3503 14.2527C73.1193 14.1495 72.9264 14.1006 72.8015 14.0816C73.0813 14.3994 73.7659 15.3313 73.5296 16.6409L73.4943 16.8283C73.4915 16.8555 73.4671 16.8799 73.4372 16.8799C73.4128 16.8827 73.3829 16.8609 73.3747 16.8338L73.3258 16.6517C72.9672 15.3286 72.4401 14.8233 71.9946 14.5516C71.9511 15.2634 71.9103 17.4179 72.1413 19.2083C72.1996 19.1671 72.2575 19.1264 72.3147 19.0861C72.3933 19.0309 72.4706 18.9765 72.5461 18.923Z"
        fill="url(#paint0_linear_32_1695)" />
    <defs>
        <linearGradient id="paint0_linear_32_1695" x1="69.4532" y1="38.3611" x2="95.7264" y2="20.6566"
            gradientUnits="userSpaceOnUse">
            <stop stop-color="#00B9AD" />
            <stop offset="1" stop-color="#2D3982" />
        </linearGradient>
    </defs>
</svg>