<svg xmlns="http://www.w3.org/2000/svg" width="131" height="41" viewBox="0 0 131 41" fill="none">
  <path d="M58.8758 10.8145H53.3629C52.8505 10.8145 52.4405 11.2479 52.4405 11.7844V33.4804C52.4405 34.0168 52.0252 34.4503 51.5127 34.4503H50.5364L43.95 34.4449C43.4376 34.4449 43.0276 34.0114 43.0276 33.475V11.7844C43.0276 11.2479 42.6123 10.8145 42.1052 10.8145H36.5923C36.0799 10.8145 35.6699 11.2479 35.6699 11.7844V35.0409C35.6699 35.301 35.767 35.5503 35.945 35.7291L39.9313 39.8689C40.104 40.0477 40.3359 40.1507 40.5787 40.1507H54.8895C55.1322 40.1507 55.3642 40.0477 55.5368 39.8689L59.5231 35.7291C59.7011 35.5449 59.7982 35.301 59.7982 35.0409V11.7844C59.7982 11.2479 59.3829 10.8145 58.8758 10.8145Z" fill="#161622"/>
  <path d="M71.49 0.00195312H65.9771C65.4646 0.00195312 65.0547 0.43544 65.0547 0.971879V39.1729C65.0547 39.7093 65.47 40.1428 65.9771 40.1428H71.49C72.0024 40.1428 72.4124 39.7093 72.4124 39.1729V0.971879C72.4124 0.43544 71.997 0.00195312 71.49 0.00195312Z" fill="#161622"/>
  <path d="M100.912 28.0401L85.5651 19.3C85.2684 19.132 85.0796 18.8014 85.0796 18.4492V17.5118C85.0796 16.9754 85.495 16.5419 86.002 16.5419H100.539C101.052 16.5419 101.462 16.1084 101.462 15.572L101.392 11.7681C101.381 11.2425 100.971 10.8145 100.469 10.8145H82.69C82.4418 10.8145 82.2045 10.9174 82.0319 11.1016L78.0887 15.2902C77.9161 15.469 77.8244 15.7183 77.8244 15.9729V22.0743C77.8244 22.4319 78.0078 22.757 78.3045 22.925L93.6025 31.6652C93.8992 31.8331 94.0826 32.1637 94.0826 32.5159V33.4533C94.0826 33.9897 93.6672 34.4232 93.1601 34.4232H84.5618V34.4449H78.5904C78.0779 34.4449 77.668 34.8784 77.668 35.4148V39.1807C77.668 39.7172 78.0833 40.1507 78.5904 40.1507H96.4776C96.7203 40.1507 96.9577 40.0477 97.1303 39.8689L101.122 35.6857C101.295 35.5015 101.392 35.2577 101.392 34.9976V28.9017C101.392 28.5441 101.208 28.2189 100.906 28.051L100.912 28.0401Z" fill="#161622"/>
  <path d="M30.1344 7.31074C30.3178 7.48955 30.4149 7.73339 30.4149 7.98806V21.8921C30.4149 22.1468 30.3124 22.3852 30.1344 22.5695L24.4597 28.259C24.2762 28.4432 24.0335 28.5407 23.7746 28.5407H14.8202C14.2862 28.5407 13.8546 28.1127 13.8546 27.5816V22.7103C13.8546 22.1793 14.2862 21.7513 14.8202 21.7513H20.2306C20.4841 21.7513 20.7323 21.6483 20.9103 21.4695L22.2264 20.1636C22.4099 19.9848 22.5069 19.741 22.5069 19.4863V11.7648C22.5069 11.2338 22.0754 10.8057 21.5414 10.8057H11.7994C11.2654 10.8057 10.8339 11.2338 10.8339 11.7648V39.1774C10.8339 39.7084 10.4023 40.1365 9.86831 40.1365H3.84838C3.31435 40.1365 2.88281 39.7084 2.88281 39.1774V11.7594C2.88281 11.2284 3.31435 10.8003 3.84838 10.8003H9.83055C10.3646 10.8003 10.7961 10.3722 10.7961 9.84121V3.90245C10.7961 3.37143 11.2277 2.94336 11.7617 2.94336H25.3389C25.5924 2.94336 25.8406 3.04631 26.024 3.22513L30.1344 7.31074Z" fill="#161622"/>
  <path d="M6.94235 0H0.965564C0.432298 0 0 0.434251 0 0.969926V6.97372C0 7.50939 0.432298 7.94364 0.965564 7.94364H6.94235C7.47562 7.94364 7.90791 7.50939 7.90791 6.97372V0.969926C7.90791 0.434251 7.47562 0 6.94235 0Z" fill="#4166F5"/>
  <path d="M130.692 13.9247L128.033 11.1341C127.839 10.9282 127.574 10.8145 127.305 10.8145H112.994H111.58C111.332 10.8145 111.095 10.9174 110.922 11.1016L106.979 15.2902C106.807 15.4744 106.715 15.7183 106.715 15.9729V35.003C106.715 35.2577 106.812 35.5015 106.985 35.6857L110.928 39.8689C111.1 40.0531 111.338 40.1561 111.586 40.1561H129.36C129.872 40.1561 130.282 39.7226 130.282 39.1861V35.4202C130.282 34.8838 129.867 34.4503 129.36 34.4503H114.849C114.337 34.4503 113.927 34.0168 113.927 33.4804V17.6961C113.927 17.1 114.391 16.6123 114.957 16.6123H124.456C125.028 16.6123 125.487 17.1 125.487 17.6961V21.5866C125.487 21.8738 125.379 22.1501 125.185 22.3506L124.478 23.093C124.284 23.2989 124.019 23.4127 123.75 23.4127H117.843C117.271 23.4127 116.813 23.9003 116.813 24.4964V27.3465C116.813 27.9426 117.277 28.4303 117.843 28.4303H126.312C126.533 28.4303 126.744 28.3544 126.922 28.2189L130.579 25.3959C130.843 25.1899 131 24.8648 131 24.5235V14.6887C131 14.4016 130.892 14.1252 130.698 13.9247H130.692Z" fill="#161622"/>
</svg>