<svg xmlns="http://www.w3.org/2000/svg" width="673" height="760" viewBox="0 0 673 760" fill="none">
  <path d="M665.665 230.749C670.461 235.546 673 241.896 673 248.669V614.688C673 621.32 670.32 627.669 665.665 632.467L517.263 782.318C512.467 787.115 506.119 789.796 499.348 789.796H265.179C251.213 789.796 239.928 778.508 239.928 764.539V636.277C239.928 622.308 251.213 611.019 265.179 611.019H406.668C413.298 611.019 419.787 608.338 424.583 603.682L459.003 569.253C463.799 564.456 466.339 558.106 466.339 551.333V348.005C466.339 334.036 455.053 322.747 441.088 322.747H186.323C172.357 322.747 161.072 334.036 161.072 348.005V1069.74C161.072 1083.71 149.787 1095 135.821 1095H-21.7492C-35.7147 1095 -47 1083.71 -47 1069.74V347.864C-47 333.895 -35.7147 322.606 -21.7492 322.606H134.693C148.658 322.606 159.944 311.318 159.944 297.349V25.2573C159.944 11.2882 171.229 0 185.194 0L540.257 115.751C546.5 118.5 553.5 120 558.172 123.088L665.665 230.608V230.749Z" fill="url(#paint0_linear_670_34896)"/>
  <defs>
    <linearGradient id="paint0_linear_670_34896" x1="77.5" y1="101.5" x2="242.197" y2="949.462" gradientUnits="userSpaceOnUse">
      <stop stop-color="#21337B"/>
      <stop offset="0.471877" stop-color="#2E48AD"/>
      <stop offset="1" stop-color="#4166F5"/>
    </linearGradient>
  </defs>
</svg>