<svg xmlns="http://www.w3.org/2000/svg" width="18" height="18" viewBox="0 0 18 18" fill="none">
  <path fill-rule="evenodd" clip-rule="evenodd" d="M7.84929 3.26805C5.31914 3.26805 3.26805 5.31914 3.26805 7.84929C3.26805 10.3794 5.31914 12.4305 7.84929 12.4305C9.11425 12.4305 10.2595 11.9178 11.0885 11.0889C11.9177 10.2599 12.4305 9.11448 12.4305 7.84929C12.4305 5.31914 10.3794 3.26805 7.84929 3.26805ZM12.1522 11.4324C12.9616 10.4614 13.4486 9.21221 13.4486 7.84929C13.4486 4.75689 10.9417 2.25 7.84929 2.25C4.75689 2.25 2.25 4.75689 2.25 7.84929C2.25 10.9417 4.75689 13.4486 7.84929 13.4486C9.21221 13.4486 10.4614 12.9616 11.4324 12.1522L13.875 14.625C14.0738 14.8238 14.3961 14.8238 14.5949 14.625C14.7937 14.4262 14.7937 14.1039 14.5949 13.9051L12.1522 11.4324Z" fill="white"/>
</svg>