<svg xmlns="http://www.w3.org/2000/svg" width="67" height="18" viewBox="0 0 67 18" fill="none">
  <path d="M61.7976 10.0815L60.3394 12.0129H67V10.0815H61.7976ZM61.7976 10.0815L60.3394 12.0129H67V10.0815H61.7976ZM18.8388 4.63519C20.1788 4.63519 21.2429 3.59227 21.2429 2.3176C21.2429 1.04292 20.1788 0 18.8388 0C17.4988 0 16.4741 1.04292 16.4741 2.3176C16.4741 3.59227 17.5382 4.63519 18.8388 4.63519ZM55.7282 3.43777L57.1865 1.50644H50.5259V3.43777H55.7282ZM67 1.50644H63.1771V4.59657H61.7976V1.50644H57.9747V4.59657H50.5259V9.07725H67V1.50644ZM54.4277 13.1717H54.3488V10.0815H50.5259V17.6524H67V13.1717H54.4277ZM46.7029 12.824C47.2153 8.38197 44.5353 5.09871 40.3971 5.09871C36.2588 5.09871 33.8547 7.87983 33.8547 11.5494C33.8547 15.2189 36.0618 18 40.3182 18C44.5747 18 45.7965 16.5322 46.6241 13.7511H42.6435C42.2494 14.3305 41.3824 14.6781 40.5153 14.6781C39.6482 14.6781 38.1112 14.1373 37.7171 12.824H46.7029ZM42.9194 10.0043H37.7959C38.1112 9.03863 39.1359 8.4206 40.3576 8.4206C41.5794 8.4206 42.5253 9 42.9194 10.0043ZM17.3412 5.3691H14.5824L17.3412 9V17.6524H21.1641V5.3691H17.3412ZM28.5735 5.3691V1.50644H24.7506V5.3691H21.9918L24.7506 9V13.867C24.7506 16.1459 26.3665 17.6524 28.7312 17.6524H33.1453V13.7897H29.4406C28.8888 13.7897 28.5735 13.4807 28.5735 13.0172V9H33.1453V5.3691H28.5735ZM9.53765 17.6524C12.5724 17.6524 14.7006 15.721 14.7006 12.9785C14.7006 10.2361 13.2029 8.88412 10.4441 8.26609C8.82824 7.87983 6.34529 7.37768 4.80824 7.03004C4.13824 6.87554 3.78353 6.48927 3.82294 6.103C3.86235 5.63948 4.21706 5.3691 4.96588 5.3691H13.5182V1.50644H5.00529C1.73412 1.50644 0 3.82403 0 6.14163C0 8.45923 1.26118 10.1202 3.82294 10.6996C5.59647 11.1245 8.00059 11.588 9.69529 11.9742C10.5624 12.1674 10.8382 12.5536 10.7988 12.9399C10.7594 13.4034 10.4047 13.7897 9.41941 13.7897H0.354706V17.6524H9.53765Z" fill="#003A24"/>
</svg>