<svg xmlns="http://www.w3.org/2000/svg" version="1.1" xmlns:xlink="http://www.w3.org/1999/xlink" xmlns:svgjs="http://svgjs.dev/svgjs" width="1440" height="560" preserveAspectRatio="none" viewBox="0 0 1440 560"><g mask="url(&quot;#SvgjsMask1022&quot;)" fill="none"><path d="M221.4 0C262.13 28.2 239 93.36 280 96.92C338.3 101.99 347.93 52.18 420 17.26C447.93 3.72 449.32 3.78 480 0C519.32 -4.85 520 0 560 0C630 0 630 0 700 0C770 0 770 0 840 0C910 0 910 0 980 0C1050 0 1050 0 1120 0C1190 0 1190 0 1260 0C1330 0 1330 0 1400 0C1470 0 1503.06 -33.06 1540 0C1573.06 29.57 1544.79 64.22 1540 125.26C1539.3 134.22 1529.02 133.42 1529.02 140C1529.02 144.91 1539.48 141.63 1540 148.24C1544.97 211.63 1540 214.12 1540 280C1540 350 1540 350 1540 420C1540 477.27 1543.77 477.94 1540 534.55C1539.11 547.94 1542.7 557.81 1530.67 560C1472.7 570.54 1465.34 560 1400 560C1336.78 560 1334.58 565.55 1273.55 560C1264.58 559.18 1268.16 551.65 1260 547.27C1191.38 510.47 1188.9 514.49 1120 477.65C1069.9 450.86 1022 450.2 1022 420C1022 388.71 1083.17 396.63 1120 354.67C1144.61 326.63 1138.09 318.52 1144.89 280C1157.03 211.19 1166.5 205.65 1157.88 140C1154.06 110.88 1141.97 90.46 1120 90.46C1092.07 90.46 1087.65 113.65 1058.08 140C1017.65 176.02 1021.3 180.27 980 215.19C938.51 250.27 894.01 238.72 892.5 280C890.26 341.13 985.18 359.46 972.5 420C958.93 484.84 911.54 484.75 840 530.75C802.68 554.75 798.31 550.9 754.78 560C728.31 565.53 727.39 560 700 560C630 560 630 560 560 560C509.36 560 458.72 581.96 458.72 560C458.72 527.87 509.36 505.91 560 451.82C574.9 435.91 574.13 435.15 589.79 420C644.13 367.44 641.3 363.3 700 316.4C728.91 293.3 763.16 309.27 765 280C768.71 221.07 739.98 208.95 711.11 140C707.48 131.34 707.98 129.64 700 124.78C632.42 83.64 614.6 43.31 560 48C526.09 50.92 526.02 92.25 522.99 140C518.65 208.25 569.85 224.72 545.26 280C518.35 340.49 473.19 318.88 420 371.54C402.49 388.88 419.88 400.79 403.85 420C349.88 484.65 350.52 496.12 280 539.26C236.1 566.12 227.75 552.19 175 560C157.75 562.56 157.5 560 140 560C70 560 35 595 0 560C-35 525 0 490 0 420C0 350 0 350 0 280C0 210 0 210 0 140C0 70 -35 35 0 0C35 -35 70 0 140 0C180.7 0 192.13 -20.26 221.4 0" stroke="rgba(235, 111, 75, 0.52)" stroke-width="2"></path><path d="M1400 246.13C1381.57 246.13 1359.62 263.07 1359.62 280C1359.62 296.93 1381.57 313.87 1400 313.87C1415.05 313.87 1426.58 296.93 1426.58 280C1426.58 263.07 1415.05 246.13 1400 246.13" stroke="rgba(235, 111, 75, 0.52)" stroke-width="2"></path><path d="M322.5 140C364.86 96.8 375.35 65.21 420 65.21C455.48 65.21 482.76 99.41 482.76 140C482.76 194.89 458.55 205.18 420 256.17C405.63 275.18 384.81 258.82 376.92 280C354.3 340.73 386.24 359.2 358.97 420C337.78 467.23 328.07 478.23 280 496.05C218.58 518.83 203.69 481.96 140 501.2C97.84 513.94 108.6 543.07 68.29 560C38.6 572.47 11.19 582.95 0 560C-22.95 512.95 0 490 0 420C0 368.57 -29.65 339.18 0 317.14C40.35 287.13 74.01 328.8 140 315.9C169.01 310.23 165.63 298.78 190 280C235.63 244.83 240.93 249.28 280 208C307.18 179.28 294.86 168.19 322.5 140" stroke="rgba(235, 111, 75, 0.52)" stroke-width="2"></path><path d="M700 48.7C667.85 17.42 622.76 13.19 622.76 0C622.76 -11.16 661.38 0 700 0C770 0 770 0 840 0C910 0 910 0 980 0C1050 0 1050 0 1120 0C1190 0 1190 0 1260 0C1330 0 1330 0 1400 0C1470 0 1483.4 -13.4 1540 0C1553.4 3.18 1547.93 19.21 1540 33.16C1508.13 89.21 1504.5 90.68 1460.39 140C1434.5 168.94 1430.04 164.66 1400 189.68C1346 234.66 1292.31 234.84 1292.31 280C1292.31 325.16 1350.86 370.32 1400 370.32C1440.15 370.32 1434.48 324.37 1470.89 280C1504.48 239.06 1520.34 199.71 1540 199.71C1554.9 199.71 1540 239.86 1540 280C1540 339.35 1552.64 346.32 1540 398.7C1535.75 416.32 1513.56 402.49 1506.21 420C1479.72 483.14 1507.68 513.4 1472.33 560C1454.58 583.4 1436.16 560 1400 560C1365 560 1359.51 573.86 1330 560C1289.51 540.98 1296.35 525.57 1260 494.24C1215.12 455.57 1175.78 467.21 1167.55 420C1157.11 360.09 1214.56 352.03 1222.67 280C1230.32 212.03 1225.84 203.49 1199.06 140C1174.51 81.8 1165.85 36.62 1120 36.62C1061.7 36.62 1054.97 87.84 990.77 140C984.97 144.71 986.08 146.04 980 150.37C910.7 199.76 900.48 250.38 840 247.44C793.82 245.2 804.12 193.16 766.67 140C734.12 93.79 739.8 87.42 700 48.7" stroke="rgba(235, 111, 75, 0.52)" stroke-width="2"></path><path d="M664.26 420C664.26 400.69 679.01 398.72 700 386.4C766.88 347.14 781.58 307.49 840 316.84C886.58 324.29 910 373.32 910 420C910 454.16 881.43 466.67 840 478.51C776.43 496.67 758.63 499.52 700 480C670.76 470.26 664.26 447.49 664.26 420" stroke="rgba(235, 111, 75, 0.52)" stroke-width="2"></path><path d="M533.19 560C533.19 551.49 544.42 531.36 560 531.36C583.02 531.36 610.4 552.34 610.4 560C610.4 566.66 585.2 560 560 560C546.6 560 533.19 565.81 533.19 560" stroke="rgba(235, 111, 75, 0.52)" stroke-width="2"></path><path d="M385 140C385 124.66 403.97 113.15 420 113.15C432.74 113.15 442.53 125.43 442.53 140C442.53 159.7 433.39 181.7 420 181.7C404.62 181.7 385 158.93 385 140" stroke="rgba(235, 111, 75, 0.52)" stroke-width="2"></path><path d="M822.22 140C822.22 120.81 827.58 100 840 100C855.78 100 878.62 122.03 878.62 140C878.62 155.06 856.82 166.05 840 166.05C828.62 166.05 822.22 153.83 822.22 140" stroke="rgba(235, 111, 75, 0.52)" stroke-width="2"></path><path d="M980 6.36C976.06 6.36 973.33 1.84 973.33 0C973.33 -1.34 976.66 0 980 0C987.78 0 995.56 -1.53 995.56 0C995.56 1.65 987.18 6.36 980 6.36" stroke="rgba(235, 111, 75, 0.52)" stroke-width="2"></path><path d="M1240.24 140C1214.97 69.35 1179.26 46.87 1185.88 0C1189.14 -23.13 1222.94 0 1260 0C1283.34 0 1293.68 -16.24 1306.67 0C1349.68 53.76 1384.64 83.86 1372 140C1361.31 187.46 1302.88 207.2 1260 207.2C1237 207.2 1252.03 172.95 1240.24 140" stroke="rgba(235, 111, 75, 0.52)" stroke-width="2"></path><path d="M1515.19 280C1515.19 264.45 1532.94 251.18 1540 251.18C1545.35 251.18 1540 265.59 1540 280C1540 301.31 1545.75 322.61 1540 322.61C1533.35 322.61 1515.19 300.16 1515.19 280" stroke="rgba(235, 111, 75, 0.52)" stroke-width="2"></path><path d="M0 388.57C57.24 382.7 75.55 421.95 140 405.64C215.55 386.51 227.32 313.34 280 317.69C314.37 320.52 314.1 373.04 314.1 420C314.1 440.61 301.8 451.44 280 452.84C214.75 457.04 204.92 416.5 140 431.2C64.92 448.2 44.09 519.78 0 516.25C-25.91 514.18 0 468.13 0 420C0 404.28 -12.76 389.88 0 388.57" stroke="rgba(235, 111, 75, 0.52)" stroke-width="2"></path><path d="M813.75 420C813.75 415.55 828.51 408.95 840 408.95C845.39 408.95 847.5 415 847.5 420C847.5 423.66 844.49 426.27 840 426.27C827.61 426.27 813.75 424.21 813.75 420" stroke="rgba(235, 111, 75, 0.52)" stroke-width="2"></path><path d="M1233.58 420C1233.58 392.83 1236.59 359.13 1260 359.13C1303.64 359.13 1367.69 398.25 1367.69 420C1367.69 439.29 1311.24 441.21 1260 441.21C1244.18 441.21 1233.58 433.87 1233.58 420" stroke="rgba(235, 111, 75, 0.52)" stroke-width="2"></path><path d="M1386.45 560C1386.45 519.2 1393.11 466.67 1400 466.67C1406.89 466.67 1414 519.36 1414 560C1414 566.03 1407 560 1400 560C1393.22 560 1386.45 565.86 1386.45 560" stroke="rgba(235, 111, 75, 0.52)" stroke-width="2"></path></g><defs><mask id="SvgjsMask1022"><rect width="1440" height="560" fill="#ffffff"></rect></mask></defs></svg>