<svg width="18" height="18" viewBox="0 0 18 18" fill="none" xmlns="http://www.w3.org/2000/svg">
<path fill-rule="evenodd" clip-rule="evenodd" d="M9.00091 3.63828C7.29179 3.63828 5.84841 5.1109 5.84841 7.00078L5.84828 7.50078C5.84828 7.50073 5.84828 7.50083 5.84828 7.50078C5.84825 8.86856 5.45357 10.1433 4.77449 11.2027C5.58076 11.4618 6.41664 11.6485 7.2755 11.7561C7.84103 11.8268 8.41675 11.8633 9.00079 11.8633C9.58491 11.8633 10.1607 11.8268 10.7263 11.756C11.5851 11.6485 12.4209 11.4617 13.2271 11.2027C12.548 10.1433 12.1533 8.86862 12.1533 7.50078V7.02872L12.1534 7.00078C12.1534 5.1109 10.71 3.63828 9.00091 3.63828ZM4.57341 7.00062C4.57349 4.4723 6.52377 2.36328 9.00091 2.36328C11.4781 2.36328 13.4284 4.47239 13.4284 7.00078L13.4283 7.03357V7.50078C13.4283 8.89092 13.9254 10.1522 14.7357 11.1015C14.8697 11.2585 14.9194 11.4706 14.869 11.6708C14.8187 11.871 14.6746 12.0344 14.4822 12.1094C13.5382 12.4772 12.5516 12.7528 11.5324 12.9257C11.5331 12.9507 11.5334 12.9757 11.5334 13.0008C11.5334 14.4246 10.4315 15.6383 9.00091 15.6383C7.57029 15.6383 6.46841 14.4246 6.46841 13.0008C6.46841 12.9757 6.46875 12.9507 6.46942 12.9257C5.4501 12.7528 4.46341 12.4772 3.51936 12.1094C3.32702 12.0344 3.18287 11.871 3.13254 11.6708C3.0822 11.4706 3.1319 11.2585 3.26591 11.1015C4.07622 10.1522 4.57328 8.89092 4.57328 7.50078L4.57341 7.00062C4.57341 7.00068 4.57341 7.00057 4.57341 7.00062ZM7.7458 13.0865C7.78724 13.8278 8.36272 14.3633 9.00091 14.3633C9.63911 14.3633 10.2146 13.8277 10.256 13.0865C9.84179 13.1208 9.42317 13.1383 9.00079 13.1383C8.5785 13.1383 8.15996 13.1208 7.7458 13.0865Z" fill="white"/>
</svg>
