<svg width="67" height="21" viewBox="0 0 67 21" fill="none" xmlns="http://www.w3.org/2000/svg">
<path d="M29.9944 5.50391H27.1859C26.9249 5.50391 26.716 5.72474 26.716 5.99802V17.0507C26.716 17.324 26.5045 17.5448 26.2434 17.5448H25.746L22.3907 17.5421C22.1297 17.5421 21.9208 17.3212 21.9208 17.048V5.99802C21.9208 5.72474 21.7092 5.50391 21.4509 5.50391H18.6425C18.3815 5.50391 18.1726 5.72474 18.1726 5.99802V17.8457C18.1726 17.9782 18.2221 18.1052 18.3128 18.1963L20.3435 20.3053C20.4314 20.3964 20.5496 20.4488 20.6733 20.4488H27.9636C28.0873 20.4488 28.2054 20.3964 28.2934 20.3053L30.3241 18.1963C30.4148 18.1024 30.4643 17.9782 30.4643 17.8457V5.99802C30.4643 5.72474 30.2527 5.50391 29.9944 5.50391Z" fill="#161622"/>
<path d="M36.4192 0H33.6108C33.3497 0 33.1409 0.220833 33.1409 0.494114V19.955C33.1409 20.2283 33.3525 20.4492 33.6108 20.4492H36.4192C36.6803 20.4492 36.8891 20.2283 36.8891 19.955V0.494114C36.8891 0.220833 36.6775 0 36.4192 0Z" fill="#161622"/>
<path d="M51.4073 14.2793L43.5893 9.82672C43.4382 9.74115 43.342 9.57276 43.342 9.39333V8.91578C43.342 8.6425 43.5536 8.42167 43.8119 8.42167H51.2177C51.4787 8.42167 51.6876 8.20083 51.6876 7.92755L51.6519 5.98974C51.6464 5.72198 51.4375 5.50391 51.182 5.50391H42.1246C41.9982 5.50391 41.8773 5.55635 41.7894 5.65021L39.7806 7.78401C39.6927 7.8751 39.646 8.00208 39.646 8.13182V11.2401C39.646 11.4222 39.7394 11.5879 39.8905 11.6734L47.6838 16.126C47.8349 16.2116 47.9284 16.3799 47.9284 16.5594V17.0369C47.9284 17.3102 47.7168 17.531 47.4585 17.531H43.0782V17.5421H40.0362C39.7751 17.5421 39.5663 17.7629 39.5663 18.0362V19.9547C39.5663 20.228 39.7779 20.4488 40.0362 20.4488H49.1485C49.2721 20.4488 49.393 20.3964 49.481 20.3053L51.5145 18.1742C51.6024 18.0804 51.6519 17.9561 51.6519 17.8236V14.7182C51.6519 14.536 51.5584 14.3704 51.4045 14.2848L51.4073 14.2793Z" fill="#161622"/>
<path d="M15.3514 3.7288C15.4448 3.8199 15.4943 3.94411 15.4943 4.07385V11.1571C15.4943 11.2868 15.4421 11.4083 15.3514 11.5021L12.4605 14.4006C12.3671 14.4944 12.2434 14.5441 12.1115 14.5441H7.54989C7.27784 14.5441 7.058 14.326 7.058 14.0555V11.5739C7.058 11.3034 7.27784 11.0853 7.54989 11.0853H10.3061C10.4353 11.0853 10.5617 11.0329 10.6523 10.9418L11.3228 10.2765C11.4163 10.1854 11.4657 10.0612 11.4657 9.93146V5.99786C11.4657 5.72734 11.2459 5.50927 10.9739 5.50927H6.01102C5.73897 5.50927 5.51914 5.72734 5.51914 5.99786V19.9628C5.51914 20.2333 5.2993 20.4514 5.02725 20.4514H1.96051C1.68847 20.4514 1.46863 20.2333 1.46863 19.9628V5.9951C1.46863 5.72458 1.68847 5.50651 1.96051 5.50651H5.00801C5.28006 5.50651 5.4999 5.28844 5.4999 5.01792V1.9925C5.4999 1.72198 5.71974 1.50391 5.99179 1.50391H12.9084C13.0376 1.50391 13.164 1.55635 13.2574 1.64745L15.3514 3.7288Z" fill="#161622"/>
<path d="M3.53664 0H0.491887C0.220225 0 0 0.221223 0 0.494115V3.55266C0 3.82555 0.220225 4.04677 0.491887 4.04677H3.53664C3.8083 4.04677 4.02852 3.82555 4.02852 3.55266V0.494115C4.02852 0.221223 3.8083 0 3.53664 0Z" fill="#4166F5"/>
<path d="M66.5797 7.08839L65.225 5.66677C65.126 5.56188 64.9914 5.50391 64.854 5.50391H57.5636H56.8437C56.7173 5.50391 56.5963 5.55635 56.5084 5.65021L54.4996 7.78401C54.4117 7.87786 54.365 8.00208 54.365 8.13182V17.8264C54.365 17.9561 54.4145 18.0804 54.5024 18.1742L56.5112 20.3053C56.5991 20.3991 56.72 20.4516 56.8464 20.4516H65.901C66.162 20.4516 66.3709 20.2307 66.3709 19.9574V18.039C66.3709 17.7657 66.1593 17.5448 65.901 17.5448H58.5089C58.2479 17.5448 58.039 17.324 58.039 17.0507V9.00963C58.039 8.70599 58.2754 8.45755 58.5639 8.45755H63.4031C63.6944 8.45755 63.9279 8.70599 63.9279 9.00963V10.9916C63.9279 11.1379 63.873 11.2787 63.774 11.3808L63.4141 11.759C63.3151 11.8639 63.1805 11.9219 63.0431 11.9219H60.0341C59.7428 11.9219 59.5092 12.1703 59.5092 12.474V13.9259C59.5092 14.2296 59.7455 14.478 60.0341 14.478H64.3484C64.461 14.478 64.5682 14.4394 64.6589 14.3704L66.522 12.9322C66.6567 12.8273 66.7364 12.6617 66.7364 12.4878V7.4776C66.7364 7.3313 66.6814 7.19052 66.5825 7.08839H66.5797Z" fill="#161622"/>
</svg>
