<svg width="14" height="14" viewBox="0 0 14 14" fill="none" xmlns="http://www.w3.org/2000/svg">
<path d="M6.75 13.5C5.26294 13.5 3.79645 12.9997 2.61777 12.0883C1.43909 11.1769 0.58934 9.88173 0.212437 8.44264C0.0685279 7.88756 0 7.31878 0 6.75C0 5.59188 0.301523 4.44746 0.863452 3.44695C0.863452 3.44695 0.870305 3.43325 0.877157 3.4264C1.4665 2.39162 2.31624 1.52132 3.34416 0.918274C4.37893 0.315228 5.55076 0 6.75 0C7.94239 0 9.12107 0.315228 10.1558 0.918274C11.1838 1.52132 12.0404 2.38477 12.6228 3.4264C12.6228 3.4264 12.6297 3.4401 12.6365 3.44695C13.2053 4.45431 13.5 5.59873 13.5 6.75C13.5 7.31878 13.4315 7.88756 13.2876 8.43579C12.9175 9.87487 12.0609 11.1701 10.8822 12.0815C9.70355 12.9929 8.23706 13.4931 6.75 13.4931V13.5ZM4.83807 10.2723C5.33147 11.5607 6.06472 12.335 6.75 12.335C7.43528 12.335 8.16853 11.5675 8.66193 10.2792C8.03147 10.3751 7.41472 10.4231 6.75 10.4162C6.10584 10.4162 5.46853 10.3683 4.83807 10.2723ZM1.86396 9.46371C2.22716 10.1216 2.72741 10.7041 3.3236 11.1701C3.61142 11.3962 3.92665 11.5881 4.25558 11.7525C3.96091 11.2523 3.70736 10.6698 3.51548 10.0119C2.95355 9.86802 2.39848 9.68299 1.85711 9.46371H1.86396ZM9.97766 10.0119C9.78579 10.6698 9.53909 11.2523 9.23756 11.7525C9.5665 11.5881 9.88173 11.3962 10.1695 11.1701C10.7657 10.7041 11.266 10.1216 11.6292 9.46371C11.0878 9.68299 10.5327 9.86802 9.97081 10.0119H9.97766ZM4.47487 9.03198C5.22868 9.18274 5.97563 9.24442 6.76371 9.25127C7.52437 9.25127 8.27817 9.17589 9.01827 9.03198C9.16218 8.3467 9.24442 7.57919 9.24442 6.75C9.24442 6.47589 9.23756 6.20863 9.217 5.95508C8.42208 6.18807 7.59289 6.30457 6.75685 6.30457H6.74315C5.90025 6.30457 5.06421 6.18122 4.26929 5.94822C4.24873 6.20863 4.24188 6.47589 4.24188 6.75C4.24188 7.57919 4.32411 8.3467 4.46802 9.03198H4.47487ZM10.3614 5.5302C10.3957 5.92081 10.4162 6.33198 10.4162 6.75C10.4162 7.43528 10.3614 8.1 10.2655 8.71675C10.9371 8.50432 11.5881 8.23706 12.2185 7.90812C12.3008 7.53122 12.335 7.14061 12.335 6.75C12.335 6.0236 12.1911 5.29721 11.917 4.63249C11.4305 4.98883 10.9028 5.29036 10.3546 5.53706L10.3614 5.5302ZM1.28147 7.90812C1.90508 8.23706 2.56294 8.50432 3.23452 8.71675C3.13858 8.1 3.08376 7.43528 3.08376 6.75C3.08376 6.33198 3.10431 5.92766 3.13858 5.5302C2.59036 5.2835 2.06954 4.98198 1.58299 4.62563C1.30888 5.29721 1.16497 6.01675 1.16497 6.75C1.16497 7.14061 1.20609 7.52437 1.28147 7.90812ZM4.42005 4.7764C5.16701 5.01624 5.95508 5.13959 6.75 5.13959H6.76371C7.55863 5.13959 8.33985 5.01624 9.0868 4.7764C8.69619 2.57665 7.68198 1.16497 6.75685 1.16497C5.83173 1.16497 4.81751 2.57665 4.4269 4.7764H4.42005ZM9.23756 1.74746C9.65558 2.44645 9.97766 3.33046 10.1832 4.33096C10.5944 4.12538 10.9919 3.87868 11.3619 3.59772C10.8959 2.91929 10.286 2.35051 9.57335 1.93249C9.46371 1.87081 9.35406 1.80914 9.23756 1.75431V1.74746ZM2.14492 3.59086C2.51497 3.87183 2.91244 4.11853 3.3236 4.32411C3.52919 3.3236 3.85127 2.44645 4.26929 1.74746C4.15964 1.80228 4.04315 1.86396 3.9335 1.92563C3.22081 2.34365 2.61091 2.91244 2.14492 3.59086Z" fill="#0060FF"/>
</svg>
