<svg width="13" height="13" viewBox="0 0 13 13" fill="none" xmlns="http://www.w3.org/2000/svg">
<path fill-rule="evenodd" clip-rule="evenodd" d="M5.59929 1.01805C3.06914 1.01805 1.01805 3.06914 1.01805 5.59929C1.01805 8.12944 3.06914 10.1805 5.59929 10.1805C6.86425 10.1805 8.00947 9.66785 8.8385 8.83893C9.66767 8.00988 10.1805 6.86448 10.1805 5.59929C10.1805 3.06914 8.12944 1.01805 5.59929 1.01805ZM9.90223 9.18236C10.7116 8.21139 11.1986 6.96221 11.1986 5.59929C11.1986 2.50689 8.69169 0 5.59929 0C2.50689 0 0 2.50689 0 5.59929C0 8.69169 2.50689 11.1986 5.59929 11.1986C6.96221 11.1986 8.21139 10.7116 9.18236 9.90223L11.625 12.375C11.8238 12.5738 12.1461 12.5738 12.3449 12.375C12.5437 12.1762 12.5437 11.8539 12.3449 11.6551L9.90223 9.18236Z" fill="white"/>
</svg>
