<svg width="151" height="45" viewBox="0 0 151 45" fill="none" xmlns="http://www.w3.org/2000/svg">
<path d="M12.5485 27C12.4605 27 12.3885 26.972 12.3325 26.916C12.2765 26.86 12.2485 26.788 12.2485 26.7V18.9C12.2485 18.812 12.2765 18.74 12.3325 18.684C12.3885 18.628 12.4605 18.6 12.5485 18.6H14.1325C14.2125 18.6 14.2805 18.628 14.3365 18.684C14.4005 18.74 14.4325 18.812 14.4325 18.9V25.188H18.0565C18.1445 25.188 18.2165 25.22 18.2725 25.284C18.3365 25.34 18.3685 25.412 18.3685 25.5V26.7C18.3685 26.788 18.3365 26.86 18.2725 26.916C18.2165 26.972 18.1445 27 18.0565 27H12.5485ZM23.2115 27.12C22.4755 27.12 21.8355 27 21.2915 26.76C20.7475 26.52 20.3235 26.16 20.0195 25.68C19.7155 25.192 19.5475 24.584 19.5155 23.856C19.5075 23.512 19.5035 23.168 19.5035 22.824C19.5035 22.48 19.5075 22.132 19.5155 21.78C19.5475 21.06 19.7155 20.456 20.0195 19.968C20.3315 19.472 20.7595 19.1 21.3035 18.852C21.8475 18.604 22.4835 18.48 23.2115 18.48C23.9315 18.48 24.5635 18.604 25.1075 18.852C25.6595 19.1 26.0915 19.472 26.4035 19.968C26.7155 20.456 26.8835 21.06 26.9075 21.78C26.9235 22.132 26.9315 22.48 26.9315 22.824C26.9315 23.168 26.9235 23.512 26.9075 23.856C26.8755 24.584 26.7075 25.192 26.4035 25.68C26.0995 26.16 25.6755 26.52 25.1315 26.76C24.5875 27 23.9475 27.12 23.2115 27.12ZM23.2115 25.392C23.6355 25.392 23.9795 25.264 24.2435 25.008C24.5155 24.752 24.6595 24.344 24.6755 23.784C24.6915 23.432 24.6995 23.1 24.6995 22.788C24.6995 22.476 24.6915 22.152 24.6755 21.816C24.6595 21.44 24.5875 21.136 24.4595 20.904C24.3395 20.664 24.1715 20.488 23.9555 20.376C23.7395 20.264 23.4915 20.208 23.2115 20.208C22.9395 20.208 22.6955 20.264 22.4795 20.376C22.2635 20.488 22.0915 20.664 21.9635 20.904C21.8355 21.136 21.7635 21.44 21.7475 21.816C21.7395 22.152 21.7355 22.476 21.7355 22.788C21.7355 23.1 21.7395 23.432 21.7475 23.784C21.7715 24.344 21.9155 24.752 22.1795 25.008C22.4435 25.264 22.7875 25.392 23.2115 25.392ZM32.2552 27.12C31.4952 27.12 30.8392 26.996 30.2872 26.748C29.7432 26.492 29.3192 26.124 29.0152 25.644C28.7192 25.156 28.5552 24.564 28.5232 23.868C28.5152 23.524 28.5112 23.16 28.5112 22.776C28.5112 22.384 28.5152 22.012 28.5232 21.66C28.5552 20.98 28.7232 20.404 29.0272 19.932C29.3312 19.46 29.7592 19.1 30.3112 18.852C30.8632 18.604 31.5112 18.48 32.2552 18.48C32.8552 18.48 33.3872 18.556 33.8512 18.708C34.3152 18.852 34.7032 19.048 35.0152 19.296C35.3352 19.544 35.5752 19.816 35.7352 20.112C35.9032 20.408 35.9912 20.7 35.9992 20.988C36.0072 21.06 35.9832 21.12 35.9272 21.168C35.8792 21.216 35.8192 21.24 35.7472 21.24H33.9952C33.9072 21.24 33.8392 21.228 33.7912 21.204C33.7512 21.172 33.7152 21.128 33.6832 21.072C33.6272 20.952 33.5432 20.828 33.4312 20.7C33.3272 20.564 33.1792 20.448 32.9872 20.352C32.8032 20.256 32.5592 20.208 32.2552 20.208C31.7992 20.208 31.4392 20.328 31.1752 20.568C30.9192 20.808 30.7792 21.192 30.7552 21.72C30.7312 22.408 30.7312 23.104 30.7552 23.808C30.7792 24.368 30.9272 24.772 31.1992 25.02C31.4712 25.268 31.8312 25.392 32.2792 25.392C32.5832 25.392 32.8512 25.34 33.0832 25.236C33.3232 25.132 33.5112 24.972 33.6472 24.756C33.7832 24.532 33.8512 24.248 33.8512 23.904V23.676H32.7232C32.6352 23.676 32.5592 23.648 32.4952 23.592C32.4392 23.528 32.4112 23.452 32.4112 23.364V22.476C32.4112 22.388 32.4392 22.316 32.4952 22.26C32.5592 22.196 32.6352 22.164 32.7232 22.164H35.7472C35.8352 22.164 35.9072 22.196 35.9632 22.26C36.0192 22.316 36.0472 22.388 36.0472 22.476V23.844C36.0472 24.532 35.8912 25.12 35.5792 25.608C35.2672 26.096 34.8232 26.472 34.2472 26.736C33.6792 26.992 33.0152 27.12 32.2552 27.12ZM41.3206 27.12C40.5846 27.12 39.9446 27 39.4006 26.76C38.8566 26.52 38.4326 26.16 38.1286 25.68C37.8246 25.192 37.6566 24.584 37.6246 23.856C37.6166 23.512 37.6126 23.168 37.6126 22.824C37.6126 22.48 37.6166 22.132 37.6246 21.78C37.6566 21.06 37.8246 20.456 38.1286 19.968C38.4406 19.472 38.8686 19.1 39.4126 18.852C39.9566 18.604 40.5926 18.48 41.3206 18.48C42.0406 18.48 42.6726 18.604 43.2166 18.852C43.7686 19.1 44.2006 19.472 44.5126 19.968C44.8246 20.456 44.9926 21.06 45.0166 21.78C45.0326 22.132 45.0406 22.48 45.0406 22.824C45.0406 23.168 45.0326 23.512 45.0166 23.856C44.9846 24.584 44.8166 25.192 44.5126 25.68C44.2086 26.16 43.7846 26.52 43.2406 26.76C42.6966 27 42.0566 27.12 41.3206 27.12ZM41.3206 25.392C41.7446 25.392 42.0886 25.264 42.3526 25.008C42.6246 24.752 42.7686 24.344 42.7846 23.784C42.8006 23.432 42.8086 23.1 42.8086 22.788C42.8086 22.476 42.8006 22.152 42.7846 21.816C42.7686 21.44 42.6966 21.136 42.5686 20.904C42.4486 20.664 42.2806 20.488 42.0646 20.376C41.8486 20.264 41.6006 20.208 41.3206 20.208C41.0486 20.208 40.8046 20.264 40.5886 20.376C40.3726 20.488 40.2006 20.664 40.0726 20.904C39.9446 21.136 39.8726 21.44 39.8566 21.816C39.8486 22.152 39.8446 22.476 39.8446 22.788C39.8446 23.1 39.8486 23.432 39.8566 23.784C39.8806 24.344 40.0246 24.752 40.2886 25.008C40.5526 25.264 40.8966 25.392 41.3206 25.392Z" fill="#5D6468"/>
<rect x="66" y="35" width="25" height="1" transform="rotate(-90 66 35)" fill="#323232" fill-opacity="0.15"/>
<path d="M145.798 24.0815L144.339 26.0129H151V24.0815H145.798ZM145.798 24.0815L144.339 26.0129H151V24.0815H145.798ZM102.839 18.6352C104.179 18.6352 105.243 17.5923 105.243 16.3176C105.243 15.0429 104.179 14 102.839 14C101.499 14 100.474 15.0429 100.474 16.3176C100.474 17.5923 101.538 18.6352 102.839 18.6352ZM139.728 17.4378L141.186 15.5064H134.526V17.4378H139.728ZM151 15.5064H147.177V18.5966H145.798V15.5064H141.975V18.5966H134.526V23.0773H151V15.5064ZM138.428 27.1717H138.349V24.0815H134.526V31.6524H151V27.1717H138.428ZM130.703 26.824C131.215 22.382 128.535 19.0987 124.397 19.0987C120.259 19.0987 117.855 21.8798 117.855 25.5494C117.855 29.2189 120.062 32 124.318 32C128.575 32 129.796 30.5322 130.624 27.7511H126.644C126.249 28.3305 125.382 28.6781 124.515 28.6781C123.648 28.6781 122.111 28.1373 121.717 26.824H130.703ZM126.919 24.0043H121.796C122.111 23.0386 123.136 22.4206 124.358 22.4206C125.579 22.4206 126.525 23 126.919 24.0043ZM101.341 19.3691H98.5824L101.341 23V31.6524H105.164V19.3691H101.341ZM112.574 19.3691V15.5064H108.751V19.3691H105.992L108.751 23V27.867C108.751 30.1459 110.366 31.6524 112.731 31.6524H117.145V27.7897H113.441C112.889 27.7897 112.574 27.4807 112.574 27.0172V23H117.145V19.3691H112.574ZM93.5376 31.6524C96.5724 31.6524 98.7006 29.721 98.7006 26.9785C98.7006 24.2361 97.2029 22.8841 94.4441 22.2661C92.8282 21.8798 90.3453 21.3777 88.8082 21.03C88.1382 20.8755 87.7835 20.4893 87.8229 20.103C87.8624 19.6395 88.2171 19.3691 88.9659 19.3691H97.5182V15.5064H89.0053C85.7341 15.5064 84 17.824 84 20.1416C84 22.4592 85.2612 24.1202 87.8229 24.6996C89.5965 25.1245 92.0006 25.588 93.6953 25.9742C94.5624 26.1674 94.8382 26.5536 94.7988 26.9399C94.7594 27.4034 94.4047 27.7897 93.4194 27.7897H84.3547V31.6524H93.5376Z" fill="#003A24"/>
</svg>
