<svg width="87" height="26" viewBox="0 0 87 26" fill="none" xmlns="http://www.w3.org/2000/svg">
<path d="M38.4599 6.85156H34.9116C34.5817 6.85156 34.3179 7.12636 34.3179 7.46643V21.2202C34.3179 21.5603 34.0505 21.8351 33.7207 21.8351H33.0922L28.8529 21.8317C28.5231 21.8317 28.2592 21.5569 28.2592 21.2168V7.46643C28.2592 7.12636 27.9919 6.85156 27.6655 6.85156H24.1171C23.7873 6.85156 23.5234 7.12636 23.5234 7.46643V22.2095C23.5234 22.3744 23.5859 22.5324 23.7005 22.6458L26.2663 25.2701C26.3774 25.3835 26.5267 25.4488 26.6829 25.4488H35.8941C36.0504 25.4488 36.1997 25.3835 36.3108 25.2701L38.8766 22.6458C38.9911 22.529 39.0536 22.3744 39.0536 22.2095V7.46643C39.0536 7.12636 38.7863 6.85156 38.4599 6.85156Z" fill="#F9F9F9"/>
<path d="M47.1363 0H43.588C43.2581 0 42.9943 0.274801 42.9943 0.614868V24.8318C42.9943 25.1718 43.2616 25.4466 43.588 25.4466H47.1363C47.4662 25.4466 47.7301 25.1718 47.7301 24.8318V0.614868C47.7301 0.274801 47.4627 0 47.1363 0Z" fill="#F9F9F9"/>
<path d="M66.6346 17.7715L56.7568 12.2308C56.5659 12.1243 56.4443 11.9148 56.4443 11.6915V11.0972C56.4443 10.7572 56.7117 10.4824 57.0381 10.4824H66.3951C66.7249 10.4824 66.9888 10.2076 66.9888 9.86751L66.9436 7.45613C66.9367 7.12293 66.6728 6.85156 66.3499 6.85156H54.9063C54.7465 6.85156 54.5938 6.91683 54.4827 7.03362L51.9446 9.68889C51.8335 9.80224 51.7745 9.96025 51.7745 10.1217V13.9895C51.7745 14.2162 51.8926 14.4223 52.0835 14.5288L61.9301 20.0695C62.121 20.176 62.2391 20.3855 62.2391 20.6088V21.2031C62.2391 21.5431 61.9718 21.8179 61.6454 21.8179H56.111V21.8317H52.2675C51.9377 21.8317 51.6738 22.1065 51.6738 22.4465V24.8339C51.6738 25.174 51.9412 25.4488 52.2675 25.4488H63.7807C63.9369 25.4488 64.0897 25.3835 64.2008 25.2701L66.77 22.6183C66.8811 22.5015 66.9436 22.3469 66.9436 22.1821V18.3177C66.9436 18.0909 66.8256 17.8848 66.6312 17.7784L66.6346 17.7715Z" fill="#F9F9F9"/>
<path d="M19.396 4.64363C19.514 4.75698 19.5765 4.91156 19.5765 5.073V13.8873C19.5765 14.0487 19.5105 14.1998 19.396 14.3166L15.7434 17.9234C15.6254 18.0402 15.4691 18.102 15.3025 18.102H9.53898C9.19525 18.102 8.91749 17.8307 8.91749 17.494V14.4059C8.91749 14.0693 9.19525 13.798 9.53898 13.798H13.0214C13.1846 13.798 13.3443 13.7327 13.4589 13.6193L14.306 12.7915C14.4241 12.6781 14.4866 12.5236 14.4866 12.3621V7.46721C14.4866 7.13058 14.2088 6.85921 13.8651 6.85921H7.59467C7.25094 6.85921 6.97318 7.13058 6.97318 7.46721V24.845C6.97318 25.1816 6.69542 25.453 6.35169 25.453H2.47695C2.13323 25.453 1.85547 25.1816 1.85547 24.845V7.46378C1.85547 7.12714 2.13323 6.85578 2.47695 6.85578H6.32739C6.67112 6.85578 6.94888 6.58441 6.94888 6.24778V2.483C6.94888 2.14637 7.22664 1.875 7.57036 1.875H16.3094C16.4725 1.875 16.6323 1.94027 16.7503 2.05362L19.396 4.64363Z" fill="#F9F9F9"/>
<path d="M4.46845 0H0.621486C0.278249 0 0 0.275286 0 0.614868V4.42087C0 4.76045 0.278249 5.03574 0.621486 5.03574H4.46845C4.81169 5.03574 5.08994 4.76045 5.08994 4.42087V0.614868C5.08994 0.275286 4.81169 0 4.46845 0Z" fill="white"/>
<path d="M86.3236 8.82326L84.6119 7.05423C84.4869 6.9237 84.3168 6.85156 84.1432 6.85156H74.932H74.0224C73.8626 6.85156 73.7099 6.91683 73.5988 7.03362L71.0608 9.68889C70.9497 9.80568 70.8906 9.96025 70.8906 10.1217V22.1855C70.8906 22.3469 70.9531 22.5015 71.0642 22.6183L73.6023 25.2701C73.7134 25.3869 73.8661 25.4522 74.0258 25.4522H85.466C85.7959 25.4522 86.0597 25.1774 86.0597 24.8373V22.45C86.0597 22.1099 85.7924 21.8351 85.466 21.8351H76.1264C75.7965 21.8351 75.5327 21.5603 75.5327 21.2202V11.214C75.5327 10.8362 75.8313 10.527 76.1958 10.527H82.31C82.678 10.527 82.9731 10.8362 82.9731 11.214V13.6804C82.9731 13.8624 82.9037 14.0376 82.7787 14.1647L82.3239 14.6353C82.1989 14.7658 82.0288 14.838 81.8552 14.838H78.0533C77.6853 14.838 77.3902 15.1471 77.3902 15.525V17.3318C77.3902 17.7097 77.6888 18.0188 78.0533 18.0188H83.5044C83.6467 18.0188 83.7821 17.9707 83.8967 17.8848L86.2507 16.0952C86.4208 15.9647 86.5215 15.7586 86.5215 15.5422V9.3076C86.5215 9.12555 86.4521 8.95036 86.3271 8.82326H86.3236Z" fill="#F9F9F9"/>
</svg>
